<svg xmlns="http://www.w3.org/2000/svg" xmlns:xlink="http://www.w3.org/1999/xlink" width="1080" zoomAndPan="magnify" viewBox="0 0 810 809.999993" height="1080" preserveAspectRatio="xMidYMid meet" version="1.0"><path fill="#0cc0df" d="M 687.957031 765.980469 L 500.789062 765.980469 C 484.386719 765.980469 471.039062 752.636719 471.039062 736.234375 L 471.039062 533.304688 C 471.039062 497.757812 442.121094 468.839844 406.574219 468.839844 L 403.390625 468.839844 C 367.847656 468.839844 338.925781 497.757812 338.925781 533.304688 L 338.925781 736.234375 C 338.925781 752.636719 325.582031 765.980469 309.175781 765.980469 L 122.011719 765.980469 C 103.21875 765.980469 87.929688 750.691406 87.929688 731.898438 L 87.929688 374.953125 C 87.929688 365.417969 95.660156 357.6875 105.195312 357.6875 C 114.730469 357.6875 122.464844 365.417969 122.464844 374.953125 L 122.464844 731.449219 L 304.394531 731.449219 L 304.394531 533.308594 C 304.394531 478.71875 348.808594 434.308594 403.394531 434.308594 L 406.578125 434.308594 C 461.164062 434.308594 505.578125 478.71875 505.578125 533.308594 L 505.578125 731.449219 L 687.507812 731.449219 L 687.507812 375.632812 C 687.507812 366.09375 695.242188 358.363281 704.773438 358.363281 C 714.308594 358.363281 722.042969 366.09375 722.042969 375.632812 L 722.042969 731.898438 C 722.042969 750.691406 706.753906 765.980469 687.957031 765.980469 Z M 687.957031 765.980469 " fill-opacity="1" fill-rule="nonzero"/><path fill="#0cc0df" d="M 782.851562 367.078125 C 779.210938 367.078125 775.539062 365.929688 772.417969 363.554688 L 404.914062 84.277344 L 37.554688 363.523438 C 29.964844 369.296875 19.132812 367.816406 13.359375 360.226562 C 7.585938 352.632812 9.066406 341.800781 16.65625 336.027344 L 394.464844 48.84375 C 400.640625 44.148438 409.1875 44.148438 415.363281 48.84375 L 793.3125 336.0625 C 800.90625 341.832031 802.382812 352.664062 796.613281 360.257812 C 793.214844 364.726562 788.0625 367.078125 782.851562 367.078125 Z M 782.851562 367.078125 " fill-opacity="1" fill-rule="nonzero"/></svg>