<svg xmlns="http://www.w3.org/2000/svg" xmlns:xlink="http://www.w3.org/1999/xlink" width="1080" zoomAndPan="magnify" viewBox="0 0 810 809.999993" height="1080" preserveAspectRatio="xMidYMid meet" version="1.0"><defs><clipPath id="50e9bcba63"><path d="M 88.050781 141 L 252 141 L 252 344 L 88.050781 344 Z M 88.050781 141 " clip-rule="nonzero"/></clipPath></defs><path fill="#0cc0df" d="M 367.5625 549.589844 C 330.105469 513.40625 271.871094 465.078125 204.894531 471.859375 C 202.175781 459.78125 238.722656 457.425781 246.023438 451.765625 C 267.71875 444.085938 286.617188 431.421875 306.324219 419.863281 C 387.175781 357.375 420.328125 251.949219 425.898438 153.566406 C 421.746094 67.769531 476.320312 365.261719 576.667969 408.070312 C 603.535156 425.695312 632.84375 438.152344 662.011719 450.175781 C 692.546875 458.441406 721.898438 462.320312 668.128906 468.488281 C 532.15625 504.007812 464.214844 628.828125 453.828125 770.617188 C 442.765625 806.125 437.585938 683.804688 429.019531 668.472656 C 415.070312 624.257812 396.132812 581.867188 367.5625 549.589844 Z M 367.5625 549.589844 " fill-opacity="1" fill-rule="nonzero"/><g clip-path="url(#50e9bcba63)"><path fill="#0cc0df" d="M 165.261719 343.046875 C 146.558594 325.644531 151.480469 276.339844 124.222656 256.609375 C 116.023438 247.824219 88.898438 244.675781 88.003906 234.171875 C 159.757812 217.695312 154.785156 97.613281 167.320312 158.953125 C 174.101562 195.359375 205.585938 219.085938 238.382812 232.335938 C 289.742188 249.632812 176.480469 229.277344 165.261719 343.046875 Z M 165.261719 343.046875 " fill-opacity="1" fill-rule="nonzero"/></g><path fill="#0cc0df" d="M 275.476562 129.109375 C 267.890625 52.03125 203.058594 80.691406 256.304688 47.542969 C 276.050781 27.695312 268.851562 3.785156 277.898438 10.175781 C 280.03125 39.445312 305.425781 56.042969 330.128906 65.804688 C 302.992188 72.402344 283.050781 101.867188 275.476562 129.109375 Z M 275.476562 129.109375 " fill-opacity="1" fill-rule="nonzero"/><path fill="#0cc0df" d="M 661.386719 704.316406 C 655.375 678.546875 648.449219 649.195312 619.230469 641.804688 C 616.316406 640.800781 616.964844 638.226562 619.710938 637.367188 C 648.253906 633.839844 651.25 592.75 663.46875 584.222656 C 662.84375 617.28125 699.5625 629.632812 715.714844 643.898438 C 682.054688 644.695312 671.277344 682.257812 661.386719 704.316406 Z M 661.386719 704.316406 " fill-opacity="1" fill-rule="nonzero"/></svg>