<svg xmlns="http://www.w3.org/2000/svg" xmlns:xlink="http://www.w3.org/1999/xlink" width="1080" zoomAndPan="magnify" viewBox="0 0 810 809.999993" height="1080" preserveAspectRatio="xMidYMid meet" version="1.0"><defs><clipPath id="639188b222"><path d="M 15.1875 88 L 755 88 L 755 724 L 15.1875 724 Z M 15.1875 88 " clip-rule="nonzero"/></clipPath></defs><path fill="#ffffff" d="M 560.277344 492.449219 C 567.167969 496.386719 575.964844 494.023438 579.902344 487.132812 C 583.839844 480.238281 581.476562 471.511719 574.648438 467.574219 L 449.75 395.441406 L 449.75 236.933594 C 449.75 228.992188 443.316406 222.5625 435.375 222.5625 C 427.433594 222.5625 421 228.992188 421 236.933594 L 421 412.046875 L 560.277344 492.449219 " fill-opacity="1" fill-rule="nonzero"/><g clip-path="url(#639188b222)"><path fill="#ffffff" d="M 275.558594 405.679688 L 179.007812 405.679688 C 179.007812 263.121094 294.589844 147.542969 437.148438 147.542969 C 579.703125 147.542969 695.285156 263.121094 695.285156 405.679688 C 695.285156 548.234375 579.703125 663.816406 437.148438 663.816406 C 408.597656 663.816406 380.242188 659.09375 353.203125 649.773438 C 337.777344 644.457031 320.910156 652.660156 315.59375 668.148438 C 310.277344 683.574219 318.546875 700.441406 333.972656 705.757812 C 499.695312 762.726562 680.253906 674.582031 737.226562 508.855469 C 794.195312 343.128906 706.113281 162.636719 540.390625 105.601562 C 374.664062 48.632812 194.105469 136.777344 137.136719 302.503906 C 125.714844 335.714844 119.875 370.566406 119.875 405.679688 L 23.324219 405.679688 C 18.796875 405.679688 15.1875 409.289062 15.1875 413.816406 C 15.1875 415.851562 15.976562 417.820312 17.351562 419.332031 L 143.5 555.457031 C 146.519531 558.738281 151.707031 558.933594 154.988281 555.851562 C 155.117188 555.71875 155.25 555.585938 155.382812 555.457031 L 281.53125 419.332031 C 284.613281 416.050781 284.417969 410.863281 281.136719 407.84375 C 279.625 406.46875 277.65625 405.679688 275.558594 405.679688 " fill-opacity="1" fill-rule="nonzero"/></g></svg>