<svg xmlns="http://www.w3.org/2000/svg" xmlns:xlink="http://www.w3.org/1999/xlink" width="1080" zoomAndPan="magnify" viewBox="0 0 810 809.999993" height="1080" preserveAspectRatio="xMidYMid meet" version="1.0"><path fill="#ffffff" d="M 688.117188 765.945312 L 500.90625 765.945312 C 484.5 765.945312 471.148438 752.601562 471.148438 736.199219 L 471.148438 533.28125 C 471.148438 497.738281 442.222656 468.820312 406.667969 468.820312 L 403.484375 468.820312 C 367.929688 468.820312 339.003906 497.738281 339.003906 533.28125 L 339.003906 736.199219 C 339.003906 752.605469 325.65625 765.945312 309.25 765.945312 L 122.039062 765.945312 C 103.242188 765.945312 87.949219 750.65625 87.949219 731.863281 L 87.949219 374.9375 C 87.949219 365.402344 95.683594 357.671875 105.21875 357.671875 C 114.757812 357.671875 122.492188 365.402344 122.492188 374.9375 L 122.492188 731.414062 L 304.464844 731.414062 L 304.464844 533.285156 C 304.464844 478.699219 348.886719 434.289062 403.488281 434.289062 L 406.671875 434.289062 C 461.273438 434.289062 505.695312 478.699219 505.695312 533.285156 L 505.695312 731.414062 L 687.667969 731.414062 L 687.667969 375.617188 C 687.667969 366.078125 695.402344 358.347656 704.941406 358.347656 C 714.476562 358.347656 722.210938 366.078125 722.210938 375.617188 L 722.210938 731.863281 C 722.210938 750.65625 706.917969 765.945312 688.121094 765.945312 Z M 688.117188 765.945312 " fill-opacity="1" fill-rule="nonzero"/><path fill="#ffffff" d="M 783.035156 367.0625 C 779.394531 367.0625 775.722656 365.914062 772.597656 363.539062 L 405.007812 84.277344 L 37.5625 363.507812 C 29.96875 369.28125 19.132812 367.800781 13.359375 360.210938 C 7.585938 352.617188 9.066406 341.785156 16.65625 336.015625 L 394.554688 48.84375 C 400.734375 44.148438 409.28125 44.148438 415.460938 48.84375 L 793.5 336.046875 C 801.09375 341.816406 802.570312 352.648438 796.800781 360.242188 C 793.402344 364.710938 788.25 367.0625 783.035156 367.0625 Z M 783.035156 367.0625 " fill-opacity="1" fill-rule="nonzero"/></svg>