<svg xmlns="http://www.w3.org/2000/svg" xmlns:xlink="http://www.w3.org/1999/xlink" width="1080" zoomAndPan="magnify" viewBox="0 0 810 809.999993" height="1080" preserveAspectRatio="xMidYMid meet" version="1.0"><path fill="#00adef" d="M 50.078125 451.15625 C 48.625 451.15625 47.175781 451.085938 45.730469 450.941406 C 44.289062 450.800781 42.851562 450.589844 41.429688 450.304688 C 40.003906 450.019531 38.597656 449.667969 37.207031 449.246094 C 35.816406 448.824219 34.453125 448.335938 33.109375 447.78125 C 31.769531 447.226562 30.457031 446.605469 29.175781 445.921875 C 27.898438 445.238281 26.652344 444.492188 25.445312 443.683594 C 24.238281 442.878906 23.074219 442.015625 21.949219 441.09375 C 20.828125 440.171875 19.753906 439.199219 18.726562 438.171875 C 17.699219 437.144531 16.726562 436.070312 15.804688 434.945312 C 14.882812 433.824219 14.019531 432.660156 13.214844 431.453125 C 12.40625 430.246094 11.660156 429 10.976562 427.71875 C 10.292969 426.4375 9.671875 425.128906 9.117188 423.785156 C 8.558594 422.445312 8.070312 421.078125 7.648438 419.691406 C 7.230469 418.300781 6.875 416.894531 6.59375 415.46875 C 6.308594 414.046875 6.097656 412.609375 5.953125 411.164062 C 5.8125 409.71875 5.742188 408.273438 5.742188 406.820312 C 5.742188 405.367188 5.8125 403.917969 5.953125 402.472656 C 6.097656 401.027344 6.308594 399.59375 6.59375 398.167969 C 6.875 396.746094 7.230469 395.339844 7.648438 393.949219 C 8.070312 392.558594 8.558594 391.195312 9.117188 389.851562 C 9.671875 388.511719 10.292969 387.199219 10.976562 385.917969 C 11.660156 384.636719 12.40625 383.394531 13.214844 382.1875 C 14.019531 380.980469 14.882812 379.816406 15.804688 378.691406 C 16.726562 377.570312 17.699219 376.496094 18.726562 375.46875 C 19.753906 374.441406 20.828125 373.46875 21.949219 372.546875 C 23.074219 371.625 24.238281 370.761719 25.445312 369.953125 C 26.652344 369.148438 27.898438 368.402344 29.175781 367.71875 C 30.457031 367.03125 31.769531 366.414062 33.109375 365.855469 C 34.453125 365.300781 35.816406 364.8125 37.207031 364.390625 C 38.597656 363.96875 40.003906 363.617188 41.429688 363.335938 C 42.851562 363.050781 44.289062 362.839844 45.730469 362.695312 C 47.175781 362.554688 48.625 362.480469 50.078125 362.480469 L 759.617188 362.480469 C 761.070312 362.480469 762.519531 362.554688 763.964844 362.695312 C 765.410156 362.839844 766.84375 363.050781 768.269531 363.335938 C 769.691406 363.617188 771.097656 363.96875 772.488281 364.390625 C 773.878906 364.8125 775.246094 365.300781 776.585938 365.855469 C 777.925781 366.414062 779.238281 367.03125 780.519531 367.71875 C 781.800781 368.402344 783.042969 369.148438 784.25 369.953125 C 785.457031 370.761719 786.625 371.625 787.746094 372.546875 C 788.867188 373.46875 789.941406 374.441406 790.96875 375.46875 C 791.996094 376.496094 792.96875 377.570312 793.890625 378.691406 C 794.8125 379.816406 795.675781 380.980469 796.484375 382.1875 C 797.289062 383.394531 798.035156 384.636719 798.71875 385.917969 C 799.40625 387.199219 800.023438 388.511719 800.582031 389.851562 C 801.136719 391.195312 801.625 392.558594 802.046875 393.949219 C 802.46875 395.339844 802.820312 396.746094 803.105469 398.167969 C 803.386719 399.59375 803.601562 401.027344 803.742188 402.472656 C 803.886719 403.917969 803.957031 405.367188 803.957031 406.820312 C 803.957031 408.273438 803.886719 409.71875 803.742188 411.164062 C 803.601562 412.609375 803.386719 414.046875 803.105469 415.46875 C 802.820312 416.894531 802.46875 418.300781 802.046875 419.691406 C 801.625 421.078125 801.136719 422.445312 800.582031 423.785156 C 800.023438 425.128906 799.40625 426.4375 798.722656 427.71875 C 798.035156 429 797.289062 430.246094 796.484375 431.453125 C 795.675781 432.660156 794.8125 433.824219 793.890625 434.945312 C 792.96875 436.070312 791.996094 437.144531 790.96875 438.171875 C 789.941406 439.199219 788.867188 440.171875 787.746094 441.09375 C 786.625 442.015625 785.457031 442.878906 784.25 443.683594 C 783.042969 444.492188 781.800781 445.238281 780.519531 445.921875 C 779.238281 446.605469 777.925781 447.226562 776.585938 447.78125 C 775.246094 448.335938 773.878906 448.824219 772.488281 449.246094 C 771.097656 449.667969 769.691406 450.019531 768.269531 450.304688 C 766.84375 450.589844 765.410156 450.800781 763.964844 450.941406 C 762.519531 451.085938 761.070312 451.15625 759.617188 451.15625 Z M 50.078125 451.15625 " fill-opacity="1" fill-rule="nonzero"/><path fill="#00adef" d="M 759.617188 433.4375 L 50.078125 433.4375 C 49.207031 433.4375 48.335938 433.394531 47.46875 433.308594 C 46.601562 433.222656 45.742188 433.09375 44.886719 432.925781 C 44.03125 432.753906 43.1875 432.542969 42.351562 432.289062 C 41.515625 432.039062 40.699219 431.742188 39.890625 431.410156 C 39.085938 431.078125 38.300781 430.703125 37.53125 430.292969 C 36.761719 429.882812 36.015625 429.433594 35.289062 428.949219 C 34.566406 428.464844 33.867188 427.949219 33.191406 427.394531 C 32.519531 426.839844 31.875 426.257812 31.257812 425.640625 C 30.640625 425.023438 30.054688 424.378906 29.503906 423.707031 C 28.949219 423.03125 28.429688 422.332031 27.945312 421.605469 C 27.460938 420.882812 27.015625 420.136719 26.605469 419.367188 C 26.191406 418.597656 25.820312 417.8125 25.488281 417.003906 C 25.152344 416.199219 24.859375 415.378906 24.605469 414.546875 C 24.355469 413.710938 24.144531 412.867188 23.972656 412.011719 C 23.800781 411.15625 23.675781 410.296875 23.589844 409.429688 C 23.503906 408.5625 23.460938 407.691406 23.460938 406.820312 C 23.460938 405.949219 23.503906 405.078125 23.589844 404.210938 C 23.675781 403.34375 23.800781 402.480469 23.972656 401.625 C 24.144531 400.773438 24.355469 399.925781 24.605469 399.09375 C 24.859375 398.257812 25.152344 397.4375 25.488281 396.632812 C 25.820312 395.828125 26.191406 395.042969 26.605469 394.273438 C 27.015625 393.503906 27.460938 392.757812 27.945312 392.03125 C 28.429688 391.308594 28.949219 390.609375 29.503906 389.933594 C 30.054688 389.261719 30.640625 388.613281 31.257812 388 C 31.875 387.382812 32.519531 386.796875 33.191406 386.246094 C 33.867188 385.691406 34.566406 385.171875 35.289062 384.6875 C 36.015625 384.203125 36.761719 383.757812 37.53125 383.34375 C 38.300781 382.933594 39.085938 382.5625 39.890625 382.230469 C 40.699219 381.894531 41.515625 381.601562 42.351562 381.347656 C 43.1875 381.097656 44.03125 380.882812 44.886719 380.714844 C 45.742188 380.542969 46.601562 380.417969 47.46875 380.332031 C 48.335938 380.246094 49.207031 380.203125 50.078125 380.203125 L 759.617188 380.203125 C 760.492188 380.203125 761.359375 380.246094 762.226562 380.332031 C 763.09375 380.417969 763.957031 380.542969 764.8125 380.714844 C 765.667969 380.882812 766.511719 381.097656 767.34375 381.347656 C 768.179688 381.601562 769 381.894531 769.804688 382.230469 C 770.609375 382.5625 771.398438 382.933594 772.164062 383.34375 C 772.933594 383.757812 773.679688 384.203125 774.40625 384.6875 C 775.132812 385.171875 775.832031 385.691406 776.503906 386.246094 C 777.179688 386.796875 777.824219 387.382812 778.441406 388 C 779.054688 388.613281 779.640625 389.261719 780.195312 389.933594 C 780.746094 390.609375 781.265625 391.308594 781.75 392.03125 C 782.234375 392.757812 782.683594 393.503906 783.09375 394.273438 C 783.503906 395.042969 783.875 395.828125 784.210938 396.632812 C 784.542969 397.4375 784.835938 398.257812 785.089844 399.09375 C 785.34375 399.925781 785.554688 400.773438 785.722656 401.625 C 785.894531 402.480469 786.023438 403.34375 786.109375 404.210938 C 786.191406 405.078125 786.234375 405.949219 786.234375 406.820312 C 786.234375 407.691406 786.191406 408.5625 786.109375 409.429688 C 786.023438 410.296875 785.894531 411.15625 785.722656 412.011719 C 785.554688 412.867188 785.34375 413.710938 785.089844 414.546875 C 784.835938 415.378906 784.542969 416.199219 784.210938 417.003906 C 783.875 417.8125 783.503906 418.597656 783.09375 419.367188 C 782.683594 420.136719 782.234375 420.882812 781.75 421.605469 C 781.265625 422.332031 780.746094 423.03125 780.195312 423.707031 C 779.640625 424.378906 779.054688 425.023438 778.441406 425.640625 C 777.824219 426.257812 777.179688 426.839844 776.503906 427.394531 C 775.832031 427.949219 775.132812 428.464844 774.40625 428.949219 C 773.679688 429.433594 772.933594 429.882812 772.164062 430.292969 C 771.398438 430.703125 770.609375 431.078125 769.804688 431.410156 C 769 431.742188 768.179688 432.039062 767.34375 432.289062 C 766.511719 432.542969 765.667969 432.753906 764.8125 432.925781 C 763.957031 433.09375 763.09375 433.222656 762.226562 433.308594 C 761.359375 433.394531 760.492188 433.4375 759.617188 433.4375 Z M 759.617188 433.4375 " fill-opacity="1" fill-rule="nonzero"/><path fill="#00adef" d="M 333.894531 734.972656 C 330.980469 734.984375 328.097656 734.707031 325.238281 734.144531 C 322.378906 733.578125 319.605469 732.742188 316.914062 731.625 C 314.222656 730.511719 311.667969 729.144531 309.246094 727.523438 C 306.828125 725.902344 304.589844 724.058594 302.539062 721.992188 L 18.722656 438.175781 C 17.695312 437.148438 16.722656 436.074219 15.800781 434.949219 C 14.878906 433.828125 14.015625 432.664062 13.210938 431.453125 C 12.40625 430.246094 11.660156 429.003906 10.976562 427.722656 C 10.292969 426.441406 9.671875 425.128906 9.117188 423.789062 C 8.5625 422.445312 8.074219 421.078125 7.652344 419.691406 C 7.230469 418.300781 6.878906 416.894531 6.59375 415.46875 C 6.3125 414.046875 6.101562 412.609375 5.957031 411.164062 C 5.816406 409.71875 5.746094 408.273438 5.746094 406.820312 C 5.746094 405.367188 5.816406 403.917969 5.957031 402.472656 C 6.101562 401.027344 6.3125 399.59375 6.59375 398.167969 C 6.878906 396.746094 7.230469 395.339844 7.652344 393.949219 C 8.074219 392.558594 8.5625 391.191406 9.117188 389.851562 C 9.671875 388.511719 10.292969 387.199219 10.976562 385.917969 C 11.660156 384.636719 12.40625 383.390625 13.210938 382.183594 C 14.015625 380.976562 14.878906 379.8125 15.800781 378.6875 C 16.722656 377.566406 17.695312 376.488281 18.722656 375.460938 L 302.539062 91.644531 C 303.566406 90.621094 304.640625 89.644531 305.761719 88.722656 C 306.882812 87.800781 308.050781 86.9375 309.257812 86.132812 C 310.464844 85.324219 311.710938 84.578125 312.988281 83.894531 C 314.269531 83.210938 315.582031 82.589844 316.925781 82.035156 C 318.265625 81.476562 319.632812 80.988281 321.023438 80.566406 C 322.410156 80.144531 323.820312 79.792969 325.242188 79.511719 C 326.667969 79.226562 328.101562 79.015625 329.546875 78.871094 C 330.992188 78.730469 332.441406 78.65625 333.894531 78.65625 C 335.347656 78.65625 336.796875 78.730469 338.242188 78.871094 C 339.6875 79.015625 341.121094 79.226562 342.546875 79.511719 C 343.96875 79.792969 345.378906 80.144531 346.765625 80.566406 C 348.15625 80.988281 349.523438 81.476562 350.863281 82.035156 C 352.207031 82.589844 353.519531 83.210938 354.796875 83.894531 C 356.078125 84.578125 357.324219 85.324219 358.53125 86.132812 C 359.738281 86.9375 360.902344 87.800781 362.027344 88.722656 C 363.148438 89.644531 364.222656 90.621094 365.25 91.644531 C 366.277344 92.671875 367.253906 93.75 368.175781 94.871094 C 369.09375 95.992188 369.960938 97.160156 370.765625 98.367188 C 371.574219 99.574219 372.320312 100.816406 373.003906 102.097656 C 373.6875 103.378906 374.308594 104.691406 374.863281 106.03125 C 375.421875 107.375 375.910156 108.742188 376.332031 110.128906 C 376.75 111.519531 377.105469 112.925781 377.386719 114.351562 C 377.671875 115.777344 377.882812 117.210938 378.027344 118.65625 C 378.167969 120.101562 378.238281 121.550781 378.238281 123.003906 C 378.238281 124.457031 378.167969 125.90625 378.027344 127.351562 C 377.882812 128.796875 377.671875 130.230469 377.386719 131.65625 C 377.105469 133.078125 376.75 134.484375 376.332031 135.875 C 375.910156 137.265625 375.421875 138.632812 374.863281 139.972656 C 374.308594 141.316406 373.6875 142.625 373.003906 143.90625 C 372.320312 145.1875 371.574219 146.433594 370.765625 147.640625 C 369.960938 148.847656 369.09375 150.011719 368.175781 151.136719 C 367.253906 152.257812 366.277344 153.332031 365.25 154.359375 L 112.792969 406.820312 L 365.25 659.277344 C 366.792969 660.820312 368.214844 662.46875 369.515625 664.21875 C 370.8125 665.96875 371.976562 667.808594 373.003906 669.730469 C 374.035156 671.652344 374.914062 673.640625 375.648438 675.695312 C 376.382812 677.75 376.964844 679.84375 377.390625 681.984375 C 377.816406 684.121094 378.082031 686.28125 378.191406 688.457031 C 378.296875 690.636719 378.242188 692.8125 378.03125 694.980469 C 377.816406 697.152344 377.445312 699.292969 376.914062 701.410156 C 376.382812 703.523438 375.703125 705.589844 374.867188 707.605469 C 374.03125 709.621094 373.054688 711.5625 371.933594 713.433594 C 370.8125 715.300781 369.558594 717.082031 368.175781 718.765625 C 366.792969 720.453125 365.292969 722.027344 363.675781 723.492188 C 362.0625 724.957031 360.347656 726.292969 358.53125 727.503906 C 356.71875 728.714844 354.828125 729.789062 352.855469 730.71875 C 350.882812 731.652344 348.855469 732.433594 346.769531 733.066406 C 344.679688 733.699219 342.558594 734.175781 340.402344 734.496094 C 338.242188 734.8125 336.074219 734.972656 333.894531 734.972656 Z M 333.894531 734.972656 " fill-opacity="1" fill-rule="nonzero"/><path fill="#00adef" d="M 333.894531 717.253906 C 332.148438 717.25 330.417969 717.082031 328.703125 716.738281 C 326.988281 716.398438 325.324219 715.890625 323.710938 715.222656 C 322.097656 714.554688 320.5625 713.730469 319.113281 712.761719 C 317.660156 711.789062 316.316406 710.6875 315.082031 709.449219 L 31.265625 425.632812 C 30.648438 425.015625 30.0625 424.371094 29.511719 423.699219 C 28.957031 423.023438 28.441406 422.324219 27.957031 421.601562 C 27.472656 420.875 27.027344 420.128906 26.613281 419.363281 C 26.203125 418.59375 25.832031 417.804688 25.5 417 C 25.164062 416.195312 24.871094 415.375 24.621094 414.542969 C 24.367188 413.707031 24.15625 412.863281 23.984375 412.011719 C 23.816406 411.15625 23.6875 410.292969 23.601562 409.425781 C 23.519531 408.558594 23.476562 407.691406 23.476562 406.820312 C 23.476562 405.949219 23.519531 405.078125 23.601562 404.210938 C 23.6875 403.34375 23.816406 402.484375 23.984375 401.628906 C 24.15625 400.773438 24.367188 399.929688 24.621094 399.097656 C 24.871094 398.261719 25.164062 397.441406 25.5 396.636719 C 25.832031 395.832031 26.203125 395.046875 26.613281 394.277344 C 27.027344 393.507812 27.472656 392.761719 27.957031 392.039062 C 28.441406 391.3125 28.957031 390.613281 29.511719 389.941406 C 30.0625 389.265625 30.648438 388.621094 31.265625 388.003906 L 315.082031 104.1875 C 315.703125 103.601562 316.351562 103.042969 317.027344 102.515625 C 317.703125 101.988281 318.402344 101.496094 319.125 101.035156 C 319.847656 100.578125 320.59375 100.15625 321.355469 99.769531 C 322.121094 99.378906 322.902344 99.03125 323.699219 98.71875 C 324.5 98.40625 325.308594 98.136719 326.132812 97.902344 C 326.957031 97.667969 327.792969 97.476562 328.636719 97.320312 C 329.476562 97.167969 330.328125 97.058594 331.179688 96.984375 C 332.035156 96.914062 332.890625 96.886719 333.746094 96.898438 C 334.601562 96.910156 335.457031 96.960938 336.308594 97.054688 C 337.160156 97.148438 338.003906 97.285156 338.84375 97.460938 C 339.679688 97.636719 340.507812 97.851562 341.328125 98.105469 C 342.144531 98.363281 342.949219 98.65625 343.738281 98.988281 C 344.527344 99.324219 345.296875 99.695312 346.050781 100.101562 C 346.804688 100.507812 347.539062 100.953125 348.25 101.429688 C 348.960938 101.910156 349.644531 102.421875 350.304688 102.964844 C 350.96875 103.507812 351.601562 104.085938 352.207031 104.691406 C 352.8125 105.296875 353.386719 105.929688 353.933594 106.589844 C 354.476562 107.253906 354.988281 107.9375 355.46875 108.648438 C 355.945312 109.359375 356.390625 110.09375 356.796875 110.84375 C 357.203125 111.597656 357.574219 112.371094 357.90625 113.160156 C 358.242188 113.949219 358.535156 114.753906 358.792969 115.570312 C 359.046875 116.386719 359.261719 117.214844 359.4375 118.054688 C 359.613281 118.894531 359.75 119.738281 359.84375 120.589844 C 359.9375 121.441406 359.988281 122.296875 360 123.152344 C 360.011719 124.007812 359.984375 124.863281 359.910156 125.71875 C 359.839844 126.570312 359.730469 127.417969 359.574219 128.261719 C 359.421875 129.105469 359.230469 129.9375 358.996094 130.765625 C 358.761719 131.589844 358.488281 132.398438 358.179688 133.195312 C 357.867188 133.996094 357.515625 134.777344 357.128906 135.539062 C 356.742188 136.304688 356.320312 137.046875 355.859375 137.773438 C 355.402344 138.496094 354.910156 139.195312 354.382812 139.871094 C 353.855469 140.546875 353.296875 141.195312 352.707031 141.816406 L 87.632812 406.820312 L 352.636719 671.820312 C 353.558594 672.746094 354.414062 673.734375 355.191406 674.785156 C 355.96875 675.839844 356.667969 676.941406 357.285156 678.09375 C 357.902344 679.25 358.429688 680.441406 358.871094 681.675781 C 359.3125 682.90625 359.660156 684.164062 359.914062 685.445312 C 360.167969 686.730469 360.328125 688.023438 360.394531 689.332031 C 360.457031 690.640625 360.425781 691.945312 360.296875 693.246094 C 360.167969 694.546875 359.945312 695.832031 359.628906 697.101562 C 359.308594 698.371094 358.898438 699.609375 358.398438 700.820312 C 357.898438 702.027344 357.3125 703.195312 356.640625 704.316406 C 355.96875 705.4375 355.214844 706.507812 354.386719 707.519531 C 353.554688 708.527344 352.65625 709.472656 351.6875 710.351562 C 350.71875 711.230469 349.691406 712.035156 348.601562 712.761719 C 347.515625 713.488281 346.378906 714.132812 345.195312 714.691406 C 344.015625 715.253906 342.796875 715.722656 341.542969 716.105469 C 340.292969 716.484375 339.019531 716.769531 337.726562 716.960938 C 336.429688 717.15625 335.128906 717.253906 333.820312 717.253906 Z M 333.894531 717.253906 " fill-opacity="1" fill-rule="nonzero"/></svg>