<svg xmlns="http://www.w3.org/2000/svg" xmlns:xlink="http://www.w3.org/1999/xlink" width="1080" zoomAndPan="magnify" viewBox="0 0 810 809.999993" height="1080" preserveAspectRatio="xMidYMid meet" version="1.0"><defs><clipPath id="3c535cab28"><path d="M 423 342 L 593.792969 342 L 593.792969 487 L 423 487 Z M 423 342 " clip-rule="nonzero"/></clipPath><clipPath id="97286f39d4"><path d="M 502.421875 292.464844 L 685.867188 379.957031 L 589.6875 581.613281 L 406.238281 494.121094 Z M 502.421875 292.464844 " clip-rule="nonzero"/></clipPath><clipPath id="7fae277e3d"><path d="M 502.421875 292.464844 L 685.867188 379.957031 L 589.6875 581.613281 L 406.238281 494.121094 Z M 502.421875 292.464844 " clip-rule="nonzero"/></clipPath><clipPath id="d7963064c7"><path d="M 418 371.617188 L 628.664062 371.617188 L 628.664062 501 L 418 501 Z M 418 371.617188 " clip-rule="nonzero"/></clipPath><clipPath id="97bd5d824c"><path d="M 502.421875 292.464844 L 685.867188 379.957031 L 589.6875 581.613281 L 406.238281 494.121094 Z M 502.421875 292.464844 " clip-rule="nonzero"/></clipPath><clipPath id="1d64d71c62"><path d="M 502.421875 292.464844 L 685.867188 379.957031 L 589.6875 581.613281 L 406.238281 494.121094 Z M 502.421875 292.464844 " clip-rule="nonzero"/></clipPath><clipPath id="fa13f25b56"><path d="M 429 314 L 559.917969 314 L 559.917969 471 L 429 471 Z M 429 314 " clip-rule="nonzero"/></clipPath><clipPath id="638cb15be4"><path d="M 502.421875 292.464844 L 685.867188 379.957031 L 589.6875 581.613281 L 406.238281 494.121094 Z M 502.421875 292.464844 " clip-rule="nonzero"/></clipPath><clipPath id="93bf519897"><path d="M 502.421875 292.464844 L 685.867188 379.957031 L 589.6875 581.613281 L 406.238281 494.121094 Z M 502.421875 292.464844 " clip-rule="nonzero"/></clipPath><clipPath id="f43e897a59"><path d="M 212.210938 342 L 383.574219 342 L 383.574219 487.1875 L 212.210938 487.1875 Z M 212.210938 342 " clip-rule="nonzero"/></clipPath><clipPath id="945316bb9e"><path d="M 121.097656 379.363281 L 304.925781 292.667969 L 400.226562 494.742188 L 216.398438 581.441406 Z M 121.097656 379.363281 " clip-rule="nonzero"/></clipPath><clipPath id="894a685cee"><path d="M 304.957031 292.652344 L 121.132812 379.351562 L 216.433594 581.425781 L 400.257812 494.726562 Z M 304.957031 292.652344 " clip-rule="nonzero"/></clipPath><clipPath id="28f0161927"><path d="M 178 371.617188 L 388.554688 371.617188 L 388.554688 501 L 178 501 Z M 178 371.617188 " clip-rule="nonzero"/></clipPath><clipPath id="a2a2ff47d8"><path d="M 121.097656 379.363281 L 304.925781 292.667969 L 400.226562 494.742188 L 216.398438 581.441406 Z M 121.097656 379.363281 " clip-rule="nonzero"/></clipPath><clipPath id="b1c01c5a05"><path d="M 304.957031 292.652344 L 121.132812 379.351562 L 216.433594 581.425781 L 400.257812 494.726562 Z M 304.957031 292.652344 " clip-rule="nonzero"/></clipPath><clipPath id="9efee8ff5e"><path d="M 247.082031 314 L 377.597656 314 L 377.597656 471.25 L 247.082031 471.25 Z M 247.082031 314 " clip-rule="nonzero"/></clipPath><clipPath id="aca69eaec9"><path d="M 121.097656 379.363281 L 304.925781 292.667969 L 400.226562 494.742188 L 216.398438 581.441406 Z M 121.097656 379.363281 " clip-rule="nonzero"/></clipPath><clipPath id="71ee96c09d"><path d="M 304.957031 292.652344 L 121.132812 379.351562 L 216.433594 581.425781 L 400.257812 494.726562 Z M 304.957031 292.652344 " clip-rule="nonzero"/></clipPath><clipPath id="fce424583a"><path d="M 339 272 L 465.269531 272 L 465.269531 458.253906 L 339 458.253906 Z M 339 272 " clip-rule="nonzero"/></clipPath></defs><g clip-path="url(#3c535cab28)"><g clip-path="url(#97286f39d4)"><g clip-path="url(#7fae277e3d)"><path fill="#0cc0df" d="M 593.660156 471.214844 L 582.605469 342.304688 C 582.605469 342.304688 569.664062 343.863281 554.351562 348.625 L 555.457031 361.53125 C 559.585938 361.332031 563.949219 361.429688 568.527344 361.921875 L 578.058594 455.332031 C 578.058594 455.332031 472.160156 443.132812 423.238281 486.511719 C 423.238281 486.511719 484.375 449.820312 593.660156 471.214844 " fill-opacity="1" fill-rule="nonzero"/></g></g></g><g clip-path="url(#d7963064c7)"><g clip-path="url(#97bd5d824c)"><g clip-path="url(#1d64d71c62)"><path fill="#38b6ff" d="M 617.09375 371.992188 C 617.09375 371.992188 604.152344 373.550781 588.847656 378.316406 L 589.953125 391.222656 C 594.082031 391.019531 598.4375 391.117188 603.015625 391.605469 L 612.546875 485.015625 C 612.546875 485.015625 487.074219 456.792969 418.097656 500.085938 C 418.097656 500.085938 494.148438 473.449219 628.152344 500.902344 L 617.09375 371.992188 " fill-opacity="1" fill-rule="nonzero"/></g></g></g><g clip-path="url(#fa13f25b56)"><g clip-path="url(#638cb15be4)"><g clip-path="url(#93bf519897)"><path fill="#ff914d" d="M 429.292969 470.511719 C 429.292969 470.511719 481.71875 428.832031 559.351562 443.257812 L 548.289062 314.347656 C 548.289062 314.347656 489.925781 321.351562 474.449219 351.246094 C 474.449219 351.246094 497.457031 330.023438 534.214844 333.960938 L 543.746094 427.367188 C 543.746094 427.367188 468.667969 424.722656 429.292969 470.511719 " fill-opacity="1" fill-rule="nonzero"/></g></g></g><g clip-path="url(#f43e897a59)"><g clip-path="url(#945316bb9e)"><g clip-path="url(#894a685cee)"><path fill="#0cc0df" d="M 212.9375 471.007812 L 224.554688 342.144531 C 224.554688 342.144531 237.492188 343.761719 252.777344 348.589844 L 251.621094 361.492188 C 247.488281 361.273438 243.128906 361.351562 238.550781 361.824219 L 228.609375 455.191406 C 228.609375 455.191406 334.5625 443.457031 383.292969 487.042969 C 383.292969 487.042969 322.316406 450.089844 212.9375 471.007812 " fill-opacity="1" fill-rule="nonzero"/></g></g></g><g clip-path="url(#28f0161927)"><g clip-path="url(#a2a2ff47d8)"><g clip-path="url(#b1c01c5a05)"><path fill="#38b6ff" d="M 189.9375 371.683594 C 189.9375 371.683594 202.871094 373.296875 218.15625 378.128906 L 216.996094 391.03125 C 212.867188 390.808594 208.511719 390.890625 203.929688 391.363281 L 193.988281 484.730469 C 193.988281 484.730469 319.585938 457.050781 388.371094 500.644531 C 388.371094 500.644531 312.441406 473.671875 178.316406 500.546875 L 189.9375 371.683594 " fill-opacity="1" fill-rule="nonzero"/></g></g></g><g clip-path="url(#9efee8ff5e)"><g clip-path="url(#aca69eaec9)"><g clip-path="url(#71ee96c09d)"><path fill="#ff914d" d="M 377.304688 471.019531 C 377.304688 471.019531 325.070312 429.113281 247.375 443.199219 L 258.992188 314.339844 C 258.992188 314.339844 317.324219 321.597656 332.667969 351.558594 C 332.667969 351.558594 309.757812 330.234375 272.984375 334.011719 L 263.046875 427.378906 C 263.046875 427.378906 338.132812 425.058594 377.304688 471.019531 " fill-opacity="1" fill-rule="nonzero"/></g></g></g><path fill="#38b6ff" d="M 459.46875 251.203125 C 459.304688 253.742188 457.53125 255.894531 455.136719 256.765625 L 405 274.921875 C 404.304688 275.171875 403.582031 275.300781 402.855469 275.300781 C 402.128906 275.300781 401.402344 275.171875 400.714844 274.921875 L 354.058594 258.027344 C 352.582031 257.492188 351.863281 255.800781 352.550781 254.347656 C 353.152344 253.078125 354.675781 252.542969 355.996094 253.019531 L 402.539062 269.875 C 402.742188 269.949219 402.96875 269.949219 403.164062 269.875 L 453.496094 251.648438 C 453.996094 251.46875 454.105469 251.078125 454.105469 250.785156 C 454.109375 250.546875 454.035156 250.113281 453.511719 249.914062 L 403.179688 230.695312 C 402.972656 230.617188 402.738281 230.617188 402.523438 230.695312 L 367.722656 243.984375 C 368.960938 244.425781 370.230469 244.910156 371.523438 245.429688 C 389.992188 252.863281 402.640625 246.613281 407.191406 243.613281 C 407.640625 243.316406 408.152344 243.175781 408.660156 243.175781 C 409.398438 243.175781 410.136719 243.484375 410.664062 244.078125 C 411.753906 245.308594 411.492188 247.207031 410.121094 248.105469 C 404.578125 251.734375 390.132812 258.710938 369.519531 250.414062 C 340.648438 238.789062 329.292969 248.761719 325.6875 253.726562 L 328.992188 255.730469 L 320.886719 268.800781 C 318.832031 272.109375 314.535156 273.214844 311.140625 271.300781 C 307.550781 269.28125 306.355469 264.683594 308.507812 261.171875 L 316.488281 248.152344 L 321.148438 250.976562 C 325.035156 245.609375 335.71875 235.738281 359.289062 241.457031 L 400.613281 225.679688 C 402.054688 225.128906 403.648438 225.128906 405.097656 225.679688 L 455.429688 244.898438 C 458.027344 245.890625 459.648438 248.394531 459.46875 251.203125 Z M 459.46875 251.203125 " fill-opacity="1" fill-rule="nonzero"/><g clip-path="url(#fce424583a)"><path fill="#38b6ff" d="M 426.976562 273.125 L 405 281.085938 C 404.304688 281.332031 403.582031 281.457031 402.855469 281.457031 C 402.128906 281.457031 401.402344 281.332031 400.714844 281.085938 L 377.960938 272.84375 C 367.714844 308.285156 339.652344 336.910156 339.652344 336.910156 C 347.746094 346.40625 355.6875 358.550781 363.121094 372.054688 L 385.65625 420.667969 C 389.859375 431.449219 396.59375 447.992188 399.707031 458.109375 L 399.003906 406.539062 C 399.351562 398.898438 399.367188 360.398438 399.171875 343.507812 C 396.71875 342.261719 395.035156 339.71875 395.035156 336.777344 C 395.035156 332.65625 398.332031 329.316406 402.429688 329.234375 C 406.523438 329.316406 409.820312 332.65625 409.820312 336.777344 C 409.820312 339.71875 408.136719 342.261719 405.683594 343.507812 C 405.488281 360.398438 405.503906 398.898438 405.851562 406.539062 L 405.148438 458.109375 C 408.261719 447.988281 414.996094 431.445312 419.199219 420.667969 L 441.734375 372.054688 C 449.167969 358.550781 457.109375 346.40625 465.203125 336.910156 C 465.203125 336.914062 437.289062 308.433594 426.976562 273.125 Z M 426.976562 273.125 " fill-opacity="1" fill-rule="nonzero"/></g><path fill="#0cc0df" d="M 147.078125 614.007812 L 147.078125 621.105469 L 92.21875 621.105469 L 92.21875 543.535156 L 145.414062 543.535156 L 145.414062 550.632812 L 100.425781 550.632812 L 100.425781 578.21875 L 140.539062 578.21875 L 140.539062 585.210938 L 100.425781 585.210938 L 100.425781 614.007812 Z M 147.078125 614.007812 " fill-opacity="1" fill-rule="nonzero"/><path fill="#0cc0df" d="M 240.039062 614.007812 L 240.039062 621.105469 L 176.429688 621.105469 L 176.429688 615.457031 L 227.847656 550.632812 L 177.210938 550.632812 L 177.210938 543.535156 L 238.714844 543.535156 L 238.714844 549.1875 L 187.40625 614.007812 Z M 240.039062 614.007812 " fill-opacity="1" fill-rule="nonzero"/><path fill="#ff914d" d="M 338.757812 543.535156 L 338.757812 621.105469 L 332 621.105469 L 282.140625 558.167969 L 282.140625 621.105469 L 273.933594 621.105469 L 273.933594 543.535156 L 280.707031 543.535156 L 330.675781 606.472656 L 330.675781 543.535156 Z M 338.757812 543.535156 " fill-opacity="1" fill-rule="nonzero"/><path fill="#ff914d" d="M 415.664062 621.777344 C 407.976562 621.777344 401.003906 620.058594 394.757812 616.625 C 388.519531 613.191406 383.648438 608.480469 380.140625 602.503906 C 376.632812 596.519531 374.878906 589.792969 374.878906 582.328125 C 374.878906 574.867188 376.632812 568.148438 380.140625 562.171875 C 383.648438 556.183594 388.519531 551.472656 394.757812 548.035156 C 401.003906 544.601562 407.976562 542.882812 415.664062 542.882812 C 423.34375 542.882812 430.265625 544.585938 436.433594 547.988281 C 442.605469 551.382812 447.460938 556.089844 451.003906 562.109375 C 454.550781 568.128906 456.328125 574.867188 456.328125 582.328125 C 456.328125 589.792969 454.550781 596.535156 451.003906 602.550781 C 447.460938 608.570312 442.605469 613.285156 436.433594 616.6875 C 430.265625 620.078125 423.34375 621.777344 415.664062 621.777344 Z M 415.664062 614.460938 C 421.789062 614.460938 427.324219 613.074219 432.277344 610.304688 C 437.226562 607.53125 441.101562 603.695312 443.90625 598.785156 C 446.714844 593.863281 448.121094 588.382812 448.121094 582.328125 C 448.121094 576.269531 446.714844 570.785156 443.90625 565.875 C 441.101562 560.957031 437.226562 557.109375 432.277344 554.339844 C 427.324219 551.570312 421.789062 550.183594 415.664062 550.183594 C 409.53125 550.183594 403.96875 551.570312 398.976562 554.339844 C 393.996094 557.109375 390.082031 560.957031 387.238281 565.875 C 384.394531 570.785156 382.972656 576.269531 382.972656 582.328125 C 382.972656 588.382812 384.394531 593.863281 387.238281 598.785156 C 390.082031 603.695312 393.996094 607.53125 398.976562 610.304688 C 403.96875 613.074219 409.53125 614.460938 415.664062 614.460938 Z M 415.664062 614.460938 " fill-opacity="1" fill-rule="nonzero"/><path fill="#ff914d" d="M 507.503906 550.632812 L 480.246094 550.632812 L 480.246094 543.535156 L 542.964844 543.535156 L 542.964844 550.632812 L 515.707031 550.632812 L 515.707031 621.105469 L 507.503906 621.105469 Z M 507.503906 550.632812 " fill-opacity="1" fill-rule="nonzero"/><path fill="#ff914d" d="M 628.621094 614.007812 L 628.621094 621.105469 L 573.765625 621.105469 L 573.765625 543.535156 L 626.957031 543.535156 L 626.957031 550.632812 L 581.96875 550.632812 L 581.96875 578.21875 L 622.085938 578.21875 L 622.085938 585.210938 L 581.96875 585.210938 L 581.96875 614.007812 Z M 628.621094 614.007812 " fill-opacity="1" fill-rule="nonzero"/><path fill="#ff914d" d="M 687.007812 621.777344 C 681.246094 621.777344 675.722656 620.855469 670.441406 619.003906 C 665.15625 617.160156 661.078125 614.71875 658.207031 611.6875 L 661.414062 605.367188 C 664.214844 608.183594 667.941406 610.457031 672.589844 612.1875 C 677.25 613.921875 682.054688 614.785156 687.007812 614.785156 C 693.949219 614.785156 699.152344 613.519531 702.621094 610.972656 C 706.097656 608.417969 707.835938 605.117188 707.835938 601.054688 C 707.835938 597.953125 706.890625 595.480469 705.003906 593.632812 C 703.121094 591.785156 700.820312 590.363281 698.089844 589.367188 C 695.359375 588.371094 691.554688 587.28125 686.679688 586.097656 C 680.847656 584.613281 676.191406 583.191406 672.714844 581.832031 C 669.238281 580.460938 666.261719 578.375 663.796875 575.574219 C 661.324219 572.761719 660.089844 568.953125 660.089844 564.148438 C 660.089844 560.234375 661.121094 556.675781 663.1875 553.46875 C 665.25 550.253906 668.425781 547.683594 672.714844 545.761719 C 677 543.84375 682.320312 542.882812 688.671875 542.882812 C 693.101562 542.882812 697.441406 543.496094 701.6875 544.71875 C 705.941406 545.933594 709.617188 547.609375 712.722656 549.746094 L 709.953125 556.285156 C 706.691406 554.148438 703.214844 552.546875 699.523438 551.476562 C 695.835938 550.398438 692.222656 549.855469 688.671875 549.855469 C 681.875 549.855469 676.753906 551.171875 673.324219 553.792969 C 669.886719 556.421875 668.171875 559.800781 668.171875 563.929688 C 668.171875 567.035156 669.109375 569.53125 670.988281 571.417969 C 672.875 573.296875 675.242188 574.734375 678.085938 575.730469 C 680.925781 576.726562 684.753906 577.816406 689.558594 578.996094 C 695.246094 580.398438 699.839844 581.785156 703.351562 583.15625 C 706.859375 584.523438 709.832031 586.59375 712.273438 589.367188 C 714.707031 592.136719 715.929688 595.882812 715.929688 600.605469 C 715.929688 604.519531 714.875 608.085938 712.769531 611.300781 C 710.660156 614.519531 707.429688 617.070312 703.070312 618.957031 C 698.714844 620.839844 693.359375 621.777344 687.007812 621.777344 Z M 687.007812 621.777344 " fill-opacity="1" fill-rule="nonzero"/></svg>