<svg xmlns="http://www.w3.org/2000/svg" xmlns:xlink="http://www.w3.org/1999/xlink" width="1080" zoomAndPan="magnify" viewBox="0 0 810 809.999993" height="1080" preserveAspectRatio="xMidYMid meet" version="1.0"><defs><clipPath id="21a80ba044"><path d="M 15.359375 67 L 794.609375 67 L 794.609375 742.738281 L 15.359375 742.738281 Z M 15.359375 67 " clip-rule="nonzero"/></clipPath></defs><g clip-path="url(#21a80ba044)"><path fill="#0cc0df" d="M 511.289062 421.800781 C 514.191406 421.800781 517.089844 421.730469 519.988281 421.585938 C 522.886719 421.445312 525.777344 421.230469 528.664062 420.945312 C 531.554688 420.660156 534.429688 420.308594 537.300781 419.882812 C 540.171875 419.457031 543.027344 418.960938 545.875 418.394531 C 548.71875 417.828125 551.550781 417.191406 554.363281 416.488281 C 557.179688 415.78125 559.976562 415.007812 562.75 414.167969 C 565.527344 413.324219 568.28125 412.414062 571.011719 411.4375 C 573.746094 410.460938 576.453125 409.414062 579.132812 408.304688 C 581.8125 407.195312 584.464844 406.019531 587.085938 404.777344 C 589.710938 403.539062 592.300781 402.234375 594.859375 400.867188 C 597.417969 399.5 599.941406 398.070312 602.429688 396.578125 C 604.917969 395.085938 607.371094 393.535156 609.78125 391.921875 C 612.195312 390.308594 614.566406 388.640625 616.894531 386.910156 C 619.226562 385.183594 621.511719 383.398438 623.753906 381.558594 C 626 379.71875 628.195312 377.824219 630.34375 375.875 C 632.496094 373.925781 634.59375 371.925781 636.648438 369.875 C 638.699219 367.824219 640.699219 365.722656 642.648438 363.574219 C 644.59375 361.421875 646.488281 359.226562 648.332031 356.984375 C 650.171875 354.742188 651.957031 352.453125 653.683594 350.125 C 655.410156 347.792969 657.082031 345.421875 658.695312 343.011719 C 660.304688 340.597656 661.859375 338.148438 663.347656 335.660156 C 664.839844 333.171875 666.269531 330.644531 667.636719 328.085938 C 669.007812 325.527344 670.308594 322.9375 671.550781 320.316406 C 672.789062 317.691406 673.964844 315.039062 675.078125 312.359375 C 676.1875 309.679688 677.230469 306.972656 678.207031 304.242188 C 679.1875 301.511719 680.09375 298.757812 680.9375 295.980469 C 681.78125 293.203125 682.554688 290.40625 683.257812 287.59375 C 683.964844 284.777344 684.597656 281.949219 685.164062 279.101562 C 685.730469 276.257812 686.226562 273.398438 686.652344 270.53125 C 687.078125 267.660156 687.433594 264.78125 687.71875 261.894531 C 688.003906 259.007812 688.214844 256.113281 688.359375 253.214844 C 688.5 250.316406 688.570312 247.417969 688.570312 244.515625 C 688.570312 241.617188 688.5 238.714844 688.359375 235.816406 C 688.214844 232.921875 688.003906 230.027344 687.71875 227.140625 C 687.433594 224.253906 687.078125 221.375 686.652344 218.503906 C 686.226562 215.632812 685.730469 212.777344 685.164062 209.929688 C 684.597656 207.085938 683.964844 204.253906 683.257812 201.441406 C 682.554688 198.625 681.78125 195.832031 680.9375 193.054688 C 680.09375 190.277344 679.1875 187.523438 678.207031 184.792969 C 677.230469 182.058594 676.1875 179.355469 675.078125 176.675781 C 673.964844 173.992188 672.789062 171.339844 671.550781 168.71875 C 670.308594 166.097656 669.007812 163.503906 667.636719 160.945312 C 666.269531 158.386719 664.839844 155.863281 663.347656 153.375 C 661.859375 150.886719 660.304688 148.4375 658.695312 146.023438 C 657.082031 143.613281 655.410156 141.242188 653.683594 138.910156 C 651.957031 136.578125 650.171875 134.292969 648.332031 132.050781 C 646.488281 129.808594 644.59375 127.609375 642.648438 125.460938 C 640.699219 123.3125 638.699219 121.210938 636.648438 119.160156 C 634.59375 117.109375 632.496094 115.109375 630.34375 113.160156 C 628.195312 111.210938 626 109.316406 623.753906 107.476562 C 621.511719 105.636719 619.226562 103.851562 616.894531 102.121094 C 614.566406 100.394531 612.195312 98.722656 609.78125 97.113281 C 607.371094 95.5 604.917969 93.949219 602.429688 92.457031 C 599.941406 90.964844 597.417969 89.535156 594.859375 88.167969 C 592.300781 86.800781 589.710938 85.496094 587.085938 84.253906 C 584.464844 83.015625 581.8125 81.839844 579.132812 80.730469 C 576.453125 79.617188 573.746094 78.574219 571.015625 77.597656 C 568.28125 76.621094 565.527344 75.710938 562.75 74.867188 C 559.976562 74.027344 557.179688 73.253906 554.363281 72.546875 C 551.550781 71.84375 548.71875 71.207031 545.875 70.640625 C 543.027344 70.074219 540.171875 69.578125 537.300781 69.152344 C 534.429688 68.726562 531.554688 68.371094 528.664062 68.089844 C 525.777344 67.804688 522.886719 67.589844 519.988281 67.449219 C 517.089844 67.304688 514.191406 67.234375 511.289062 67.234375 C 508.386719 67.234375 505.488281 67.304688 502.589844 67.449219 C 499.691406 67.589844 496.800781 67.804688 493.910156 68.089844 C 491.023438 68.371094 488.144531 68.726562 485.277344 69.152344 C 482.40625 69.578125 479.546875 70.074219 476.703125 70.640625 C 473.855469 71.207031 471.027344 71.84375 468.210938 72.546875 C 465.398438 73.253906 462.601562 74.027344 459.828125 74.867188 C 457.050781 75.710938 454.296875 76.621094 451.5625 77.597656 C 448.832031 78.574219 446.125 79.617188 443.445312 80.730469 C 440.765625 81.839844 438.113281 83.015625 435.492188 84.253906 C 432.867188 85.496094 430.277344 86.800781 427.71875 88.167969 C 425.160156 89.535156 422.636719 90.964844 420.148438 92.457031 C 417.660156 93.949219 415.207031 95.5 412.796875 97.113281 C 410.382812 98.722656 408.011719 100.394531 405.679688 102.121094 C 403.351562 103.851562 401.066406 105.636719 398.820312 107.476562 C 396.578125 109.316406 394.382812 111.210938 392.234375 113.160156 C 390.082031 115.109375 387.984375 117.109375 385.929688 119.160156 C 383.878906 121.210938 381.878906 123.3125 379.929688 125.460938 C 377.984375 127.609375 376.089844 129.808594 374.246094 132.050781 C 372.40625 134.292969 370.621094 136.578125 368.894531 138.910156 C 367.164062 141.242188 365.496094 143.613281 363.882812 146.023438 C 362.273438 148.4375 360.71875 150.886719 359.226562 153.375 C 357.738281 155.863281 356.308594 158.386719 354.9375 160.945312 C 353.570312 163.503906 352.265625 166.097656 351.027344 168.71875 C 349.785156 171.339844 348.609375 173.992188 347.5 176.675781 C 346.390625 179.355469 345.347656 182.058594 344.371094 184.792969 C 343.390625 187.523438 342.480469 190.277344 341.640625 193.054688 C 340.796875 195.832031 340.023438 198.625 339.320312 201.441406 C 338.613281 204.253906 337.976562 207.085938 337.414062 209.929688 C 336.847656 212.777344 336.351562 215.632812 335.925781 218.503906 C 335.5 221.375 335.144531 224.253906 334.859375 227.140625 C 334.574219 230.027344 334.363281 232.921875 334.21875 235.816406 C 334.078125 238.714844 334.007812 241.617188 334.007812 244.515625 C 334.007812 247.417969 334.078125 250.316406 334.21875 253.214844 C 334.363281 256.113281 334.574219 259.007812 334.859375 261.894531 C 335.144531 264.78125 335.5 267.660156 335.925781 270.53125 C 336.351562 273.398438 336.847656 276.257812 337.414062 279.101562 C 337.976562 281.949219 338.613281 284.777344 339.320312 287.59375 C 340.023438 290.40625 340.796875 293.203125 341.640625 295.980469 C 342.480469 298.757812 343.390625 301.511719 344.371094 304.242188 C 345.347656 306.972656 346.390625 309.679688 347.5 312.359375 C 348.609375 315.039062 349.785156 317.691406 351.027344 320.316406 C 352.265625 322.9375 353.570312 325.527344 354.9375 328.085938 C 356.308594 330.644531 357.738281 333.171875 359.226562 335.660156 C 360.71875 338.148438 362.273438 340.597656 363.882812 343.011719 C 365.496094 345.421875 367.164062 347.792969 368.894531 350.125 C 370.621094 352.453125 372.40625 354.742188 374.246094 356.984375 C 376.089844 359.226562 377.984375 361.421875 379.929688 363.574219 C 381.878906 365.722656 383.878906 367.824219 385.929688 369.875 C 387.984375 371.925781 390.082031 373.925781 392.234375 375.875 C 394.382812 377.824219 396.578125 379.71875 398.820312 381.558594 C 401.066406 383.398438 403.351562 385.183594 405.679688 386.910156 C 408.011719 388.640625 410.382812 390.308594 412.796875 391.921875 C 415.207031 393.535156 417.660156 395.085938 420.148438 396.578125 C 422.636719 398.070312 425.160156 399.5 427.71875 400.867188 C 430.277344 402.234375 432.867188 403.539062 435.492188 404.777344 C 438.113281 406.019531 440.765625 407.195312 443.445312 408.304688 C 446.125 409.414062 448.832031 410.460938 451.5625 411.4375 C 454.296875 412.414062 457.050781 413.324219 459.828125 414.167969 C 462.601562 415.007812 465.398438 415.78125 468.210938 416.488281 C 471.027344 417.191406 473.855469 417.828125 476.703125 418.394531 C 479.546875 418.960938 482.40625 419.457031 485.277344 419.882812 C 488.144531 420.308594 491.023438 420.660156 493.910156 420.945312 C 496.800781 421.230469 499.691406 421.445312 502.589844 421.585938 C 505.488281 421.730469 508.386719 421.800781 511.289062 421.800781 Z M 511.289062 82.648438 C 513.9375 82.648438 516.585938 82.714844 519.230469 82.84375 C 521.878906 82.976562 524.519531 83.171875 527.15625 83.429688 C 529.789062 83.6875 532.417969 84.011719 535.039062 84.402344 C 537.660156 84.789062 540.269531 85.242188 542.867188 85.761719 C 545.464844 86.277344 548.050781 86.859375 550.621094 87.5 C 553.1875 88.144531 555.742188 88.851562 558.277344 89.621094 C 560.8125 90.390625 563.324219 91.21875 565.820312 92.113281 C 568.3125 93.003906 570.785156 93.957031 573.234375 94.972656 C 575.679688 95.984375 578.101562 97.058594 580.496094 98.191406 C 582.890625 99.324219 585.257812 100.515625 587.59375 101.761719 C 589.929688 103.011719 592.234375 104.316406 594.503906 105.679688 C 596.777344 107.042969 599.015625 108.457031 601.21875 109.929688 C 603.417969 111.402344 605.585938 112.925781 607.710938 114.503906 C 609.839844 116.082031 611.929688 117.710938 613.976562 119.390625 C 616.023438 121.074219 618.027344 122.804688 619.992188 124.582031 C 621.953125 126.359375 623.871094 128.1875 625.746094 130.058594 C 627.617188 131.933594 629.445312 133.851562 631.222656 135.8125 C 633.003906 137.777344 634.734375 139.78125 636.414062 141.828125 C 638.09375 143.878906 639.722656 145.964844 641.300781 148.09375 C 642.878906 150.222656 644.402344 152.386719 645.875 154.589844 C 647.347656 156.792969 648.765625 159.027344 650.125 161.300781 C 651.488281 163.574219 652.792969 165.878906 654.042969 168.214844 C 655.292969 170.550781 656.480469 172.914062 657.613281 175.308594 C 658.746094 177.703125 659.820312 180.125 660.835938 182.574219 C 661.847656 185.019531 662.800781 187.492188 663.695312 189.984375 C 664.585938 192.480469 665.417969 194.996094 666.1875 197.53125 C 666.953125 200.066406 667.660156 202.617188 668.304688 205.1875 C 668.949219 207.757812 669.527344 210.339844 670.046875 212.9375 C 670.5625 215.535156 671.015625 218.144531 671.402344 220.765625 C 671.792969 223.386719 672.117188 226.015625 672.375 228.652344 C 672.636719 231.289062 672.832031 233.929688 672.960938 236.574219 C 673.089844 239.21875 673.15625 241.867188 673.15625 244.515625 C 673.15625 247.167969 673.089844 249.8125 672.960938 252.460938 C 672.832031 255.105469 672.636719 257.746094 672.375 260.382812 C 672.117188 263.019531 671.792969 265.648438 671.402344 268.269531 C 671.015625 270.886719 670.5625 273.496094 670.046875 276.097656 C 669.527344 278.695312 668.949219 281.277344 668.304688 283.847656 C 667.660156 286.417969 666.953125 288.96875 666.1875 291.503906 C 665.417969 294.039062 664.585938 296.554688 663.695312 299.046875 C 662.800781 301.542969 661.847656 304.011719 660.835938 306.460938 C 659.820312 308.910156 658.746094 311.328125 657.613281 313.722656 C 656.480469 316.117188 655.292969 318.484375 654.042969 320.820312 C 652.792969 323.15625 651.488281 325.460938 650.125 327.734375 C 648.765625 330.003906 647.347656 332.242188 645.875 334.445312 C 644.40625 336.648438 642.878906 338.8125 641.300781 340.941406 C 639.722656 343.070312 638.09375 345.15625 636.414062 347.203125 C 634.734375 349.253906 633.003906 351.257812 631.222656 353.21875 C 629.445312 355.183594 627.617188 357.101562 625.746094 358.972656 C 623.871094 360.847656 621.953125 362.671875 619.992188 364.453125 C 618.027344 366.230469 616.023438 367.960938 613.976562 369.640625 C 611.929688 371.324219 609.839844 372.953125 607.710938 374.53125 C 605.585938 376.109375 603.417969 377.632812 601.21875 379.105469 C 599.015625 380.578125 596.777344 381.992188 594.503906 383.355469 C 592.234375 384.71875 589.929688 386.023438 587.59375 387.269531 C 585.257812 388.519531 582.890625 389.710938 580.496094 390.84375 C 578.101562 391.976562 575.679688 393.050781 573.234375 394.0625 C 570.785156 395.078125 568.3125 396.03125 565.820312 396.921875 C 563.324219 397.816406 560.8125 398.644531 558.277344 399.414062 C 555.742188 400.183594 553.1875 400.890625 550.621094 401.53125 C 548.050781 402.175781 545.464844 402.757812 542.867188 403.273438 C 540.269531 403.789062 537.660156 404.242188 535.039062 404.632812 C 532.417969 405.019531 529.789062 405.34375 527.15625 405.605469 C 524.519531 405.863281 521.878906 406.058594 519.230469 406.1875 C 516.585938 406.320312 513.9375 406.382812 511.289062 406.382812 C 508.640625 406.382812 505.992188 406.320312 503.347656 406.1875 C 500.699219 406.058594 498.058594 405.863281 495.421875 405.605469 C 492.785156 405.34375 490.160156 405.019531 487.539062 404.632812 C 484.917969 404.242188 482.308594 403.789062 479.710938 403.273438 C 477.113281 402.757812 474.527344 402.175781 471.957031 401.53125 C 469.386719 400.890625 466.835938 400.183594 464.300781 399.414062 C 461.765625 398.644531 459.25 397.816406 456.757812 396.921875 C 454.261719 396.03125 451.792969 395.078125 449.34375 394.0625 C 446.898438 393.050781 444.476562 391.976562 442.082031 390.84375 C 439.6875 389.710938 437.320312 388.519531 434.984375 387.269531 C 432.648438 386.023438 430.34375 384.71875 428.074219 383.355469 C 425.800781 381.992188 423.5625 380.578125 421.359375 379.105469 C 419.15625 377.632812 416.992188 376.109375 414.863281 374.53125 C 412.738281 372.953125 410.648438 371.324219 408.601562 369.640625 C 406.554688 367.960938 404.546875 366.230469 402.585938 364.453125 C 400.621094 362.671875 398.703125 360.847656 396.832031 358.972656 C 394.957031 357.101562 393.132812 355.183594 391.351562 353.21875 C 389.574219 351.257812 387.84375 349.253906 386.164062 347.203125 C 384.484375 345.15625 382.855469 343.070312 381.277344 340.941406 C 379.699219 338.8125 378.171875 336.648438 376.703125 334.445312 C 375.230469 332.242188 373.8125 330.003906 372.449219 327.734375 C 371.089844 325.460938 369.785156 323.15625 368.535156 320.820312 C 367.285156 318.484375 366.09375 316.117188 364.960938 313.722656 C 363.832031 311.328125 362.757812 308.910156 361.742188 306.460938 C 360.730469 304.011719 359.777344 301.542969 358.882812 299.046875 C 357.992188 296.554688 357.160156 294.039062 356.390625 291.503906 C 355.621094 288.96875 354.917969 286.417969 354.273438 283.847656 C 353.628906 281.277344 353.050781 278.695312 352.53125 276.09375 C 352.015625 273.496094 351.5625 270.886719 351.175781 268.269531 C 350.785156 265.648438 350.460938 263.019531 350.203125 260.382812 C 349.941406 257.746094 349.746094 255.105469 349.617188 252.460938 C 349.488281 249.8125 349.421875 247.167969 349.421875 244.515625 C 349.425781 241.871094 349.492188 239.222656 349.625 236.578125 C 349.757812 233.9375 349.953125 231.296875 350.214844 228.660156 C 350.476562 226.027344 350.804688 223.402344 351.195312 220.78125 C 351.585938 218.164062 352.039062 215.554688 352.558594 212.960938 C 353.078125 210.363281 353.660156 207.78125 354.304688 205.214844 C 354.949219 202.648438 355.65625 200.097656 356.429688 197.5625 C 357.199219 195.03125 358.03125 192.519531 358.925781 190.027344 C 359.820312 187.535156 360.773438 185.066406 361.789062 182.621094 C 362.800781 180.175781 363.875 177.757812 365.011719 175.363281 C 366.144531 172.972656 367.335938 170.609375 368.585938 168.273438 C 369.835938 165.941406 371.140625 163.636719 372.503906 161.367188 C 373.867188 159.097656 375.28125 156.863281 376.753906 154.664062 C 378.226562 152.460938 379.753906 150.300781 381.332031 148.171875 C 382.910156 146.046875 384.539062 143.960938 386.21875 141.917969 C 387.898438 139.871094 389.628906 137.867188 391.410156 135.90625 C 393.1875 133.945312 395.011719 132.03125 396.886719 130.160156 C 398.757812 128.289062 400.675781 126.464844 402.640625 124.6875 C 404.601562 122.910156 406.605469 121.183594 408.652344 119.503906 C 410.699219 117.824219 412.789062 116.199219 414.914062 114.621094 C 417.042969 113.046875 419.207031 111.523438 421.410156 110.050781 C 423.609375 108.582031 425.847656 107.167969 428.117188 105.804688 C 430.390625 104.445312 432.691406 103.140625 435.027344 101.894531 C 437.363281 100.648438 439.726562 99.457031 442.121094 98.328125 C 444.515625 97.195312 446.933594 96.125 449.378906 95.109375 C 451.828125 94.097656 454.296875 93.148438 456.789062 92.253906 C 459.28125 91.363281 461.796875 90.535156 464.328125 89.765625 C 466.863281 88.996094 469.414062 88.292969 471.980469 87.648438 C 474.550781 87.007812 477.132812 86.425781 479.730469 85.910156 C 482.324219 85.394531 484.933594 84.941406 487.550781 84.554688 C 490.171875 84.167969 492.796875 83.84375 495.433594 83.582031 C 498.066406 83.324219 500.707031 83.128906 503.351562 83 C 505.996094 82.871094 508.640625 82.804688 511.289062 82.804688 Z M 694.429688 478.375 L 320.980469 478.375 C 319.339844 478.375 317.699219 478.417969 316.0625 478.496094 C 314.425781 478.578125 312.789062 478.699219 311.15625 478.859375 C 309.527344 479.019531 307.898438 479.21875 306.277344 479.460938 C 304.65625 479.703125 303.039062 479.980469 301.429688 480.300781 C 299.824219 480.621094 298.222656 480.980469 296.632812 481.378906 C 295.042969 481.777344 293.460938 482.214844 291.890625 482.691406 C 290.324219 483.167969 288.765625 483.679688 287.222656 484.234375 C 285.679688 484.785156 284.148438 485.375 282.632812 486.003906 C 281.117188 486.632812 279.621094 487.296875 278.136719 487.996094 C 276.65625 488.699219 275.191406 489.433594 273.746094 490.207031 C 272.296875 490.980469 270.871094 491.789062 269.464844 492.632812 C 268.058594 493.476562 266.671875 494.351562 265.308594 495.261719 C 263.945312 496.175781 262.605469 497.117188 261.289062 498.09375 C 259.972656 499.074219 258.679688 500.082031 257.410156 501.121094 C 256.144531 502.160156 254.902344 503.234375 253.6875 504.332031 C 252.472656 505.433594 251.285156 506.566406 250.125 507.726562 C 248.964844 508.882812 247.835938 510.070312 246.734375 511.289062 C 245.632812 512.503906 244.5625 513.742188 243.523438 515.011719 C 242.480469 516.277344 241.472656 517.570312 240.496094 518.886719 C 239.519531 520.207031 238.574219 521.546875 237.664062 522.910156 C 236.753906 524.273438 235.875 525.660156 235.03125 527.066406 C 234.1875 528.472656 233.382812 529.898438 232.609375 531.34375 C 231.835938 532.789062 231.097656 534.253906 230.398438 535.738281 C 229.695312 537.21875 229.03125 538.71875 228.402344 540.234375 C 227.777344 541.75 227.1875 543.277344 226.632812 544.820312 C 226.082031 546.367188 225.566406 547.921875 225.089844 549.492188 C 224.613281 551.0625 224.179688 552.640625 223.78125 554.234375 C 223.382812 555.824219 223.023438 557.421875 222.703125 559.03125 C 222.382812 560.640625 222.101562 562.253906 221.859375 563.875 C 221.621094 565.5 221.417969 567.125 221.257812 568.757812 C 221.097656 570.390625 220.976562 572.023438 220.898438 573.664062 C 220.816406 575.300781 220.777344 576.941406 220.777344 578.578125 L 220.777344 714.855469 C 220.777344 715.777344 220.828125 716.695312 220.917969 717.613281 C 221.011719 718.527344 221.148438 719.4375 221.328125 720.339844 C 221.511719 721.242188 221.734375 722.132812 222.003906 723.015625 C 222.273438 723.894531 222.585938 724.761719 222.9375 725.609375 C 223.292969 726.460938 223.6875 727.292969 224.121094 728.101562 C 224.554688 728.914062 225.027344 729.703125 225.542969 730.46875 C 226.054688 731.234375 226.601562 731.972656 227.1875 732.683594 C 227.769531 733.394531 228.386719 734.078125 229.039062 734.726562 C 229.691406 735.378906 230.371094 735.996094 231.082031 736.582031 C 231.792969 737.164062 232.53125 737.714844 233.296875 738.226562 C 234.0625 738.738281 234.851562 739.210938 235.664062 739.644531 C 236.476562 740.082031 237.304688 740.472656 238.15625 740.828125 C 239.007812 741.179688 239.871094 741.492188 240.753906 741.761719 C 241.632812 742.03125 242.523438 742.253906 243.425781 742.4375 C 244.328125 742.617188 245.238281 742.753906 246.15625 742.847656 C 247.070312 742.941406 247.988281 742.988281 248.910156 742.988281 L 766.5 742.988281 C 767.421875 742.988281 768.339844 742.945312 769.257812 742.855469 C 770.171875 742.765625 771.082031 742.628906 771.988281 742.449219 C 772.890625 742.269531 773.785156 742.046875 774.664062 741.777344 C 775.546875 741.511719 776.414062 741.199219 777.265625 740.847656 C 778.117188 740.496094 778.949219 740.101562 779.761719 739.667969 C 780.574219 739.234375 781.363281 738.761719 782.128906 738.25 C 782.894531 737.738281 783.632812 737.1875 784.347656 736.605469 C 785.058594 736.019531 785.742188 735.402344 786.394531 734.75 C 787.042969 734.097656 787.664062 733.417969 788.246094 732.703125 C 788.832031 731.992188 789.378906 731.253906 789.890625 730.488281 C 790.402344 729.71875 790.875 728.929688 791.3125 728.117188 C 791.746094 727.304688 792.140625 726.472656 792.492188 725.621094 C 792.84375 724.769531 793.152344 723.90625 793.421875 723.023438 C 793.6875 722.140625 793.914062 721.25 794.09375 720.34375 C 794.273438 719.441406 794.40625 718.53125 794.496094 717.613281 C 794.585938 716.695312 794.632812 715.777344 794.632812 714.855469 L 794.632812 578.734375 C 794.632812 577.09375 794.59375 575.453125 794.511719 573.816406 C 794.433594 572.179688 794.3125 570.542969 794.148438 568.914062 C 793.988281 567.28125 793.789062 565.652344 793.546875 564.03125 C 793.308594 562.410156 793.027344 560.792969 792.707031 559.183594 C 792.386719 557.578125 792.027344 555.976562 791.628906 554.386719 C 791.230469 552.796875 790.792969 551.214844 790.316406 549.644531 C 789.84375 548.078125 789.328125 546.519531 788.773438 544.976562 C 788.222656 543.433594 787.632812 541.902344 787.003906 540.386719 C 786.378906 538.871094 785.714844 537.375 785.011719 535.890625 C 784.3125 534.410156 783.574219 532.945312 782.800781 531.5 C 782.027344 530.050781 781.21875 528.625 780.375 527.21875 C 779.535156 525.8125 778.65625 524.425781 777.746094 523.0625 C 776.835938 521.699219 775.890625 520.359375 774.914062 519.042969 C 773.9375 517.726562 772.929688 516.433594 771.886719 515.164062 C 770.847656 513.898438 769.777344 512.65625 768.675781 511.441406 C 767.574219 510.226562 766.445312 509.039062 765.285156 507.878906 C 764.125 506.71875 762.9375 505.589844 761.722656 504.488281 C 760.507812 503.386719 759.265625 502.316406 757.996094 501.277344 C 756.730469 500.234375 755.4375 499.226562 754.121094 498.25 C 752.804688 497.273438 751.464844 496.328125 750.097656 495.417969 C 748.734375 494.507812 747.351562 493.628906 745.945312 492.785156 C 744.539062 491.945312 743.113281 491.136719 741.664062 490.363281 C 740.21875 489.589844 738.753906 488.851562 737.273438 488.152344 C 735.789062 487.449219 734.289062 486.785156 732.777344 486.15625 C 731.261719 485.53125 729.730469 484.941406 728.1875 484.386719 C 726.644531 483.835938 725.085938 483.320312 723.515625 482.84375 C 721.949219 482.367188 720.367188 481.933594 718.777344 481.535156 C 717.1875 481.136719 715.585938 480.777344 713.976562 480.457031 C 712.371094 480.136719 710.753906 479.855469 709.132812 479.613281 C 707.511719 479.375 705.882812 479.171875 704.25 479.011719 C 702.621094 478.851562 700.984375 478.730469 699.347656 478.652344 C 697.707031 478.570312 696.070312 478.53125 694.429688 478.53125 Z M 779.21875 714.855469 C 779.21875 715.691406 779.136719 716.519531 778.972656 717.335938 C 778.808594 718.15625 778.570312 718.953125 778.25 719.722656 C 777.929688 720.496094 777.539062 721.226562 777.074219 721.921875 C 776.609375 722.617188 776.082031 723.257812 775.492188 723.847656 C 774.902344 724.441406 774.257812 724.96875 773.566406 725.429688 C 772.871094 725.894531 772.136719 726.285156 771.367188 726.605469 C 770.59375 726.925781 769.800781 727.167969 768.980469 727.328125 C 768.160156 727.492188 767.335938 727.574219 766.5 727.574219 L 248.910156 727.574219 C 248.074219 727.574219 247.25 727.492188 246.429688 727.328125 C 245.609375 727.167969 244.816406 726.925781 244.042969 726.605469 C 243.273438 726.285156 242.539062 725.894531 241.84375 725.429688 C 241.148438 724.964844 240.507812 724.441406 239.917969 723.847656 C 239.328125 723.257812 238.800781 722.617188 238.335938 721.921875 C 237.871094 721.226562 237.480469 720.496094 237.160156 719.722656 C 236.839844 718.953125 236.597656 718.15625 236.4375 717.335938 C 236.273438 716.519531 236.191406 715.691406 236.191406 714.855469 L 236.191406 578.734375 C 236.191406 577.347656 236.226562 575.960938 236.292969 574.574219 C 236.363281 573.1875 236.464844 571.804688 236.601562 570.421875 C 236.738281 569.042969 236.90625 567.664062 237.109375 566.292969 C 237.3125 564.921875 237.550781 563.554688 237.820312 562.191406 C 238.09375 560.832031 238.394531 559.476562 238.734375 558.132812 C 239.070312 556.785156 239.441406 555.449219 239.84375 554.121094 C 240.246094 552.792969 240.679688 551.476562 241.148438 550.167969 C 241.617188 548.863281 242.117188 547.570312 242.644531 546.285156 C 243.175781 545.003906 243.738281 543.738281 244.332031 542.480469 C 244.925781 541.226562 245.550781 539.988281 246.203125 538.765625 C 246.859375 537.542969 247.542969 536.335938 248.253906 535.144531 C 248.96875 533.953125 249.710938 532.78125 250.480469 531.628906 C 251.253906 530.472656 252.050781 529.339844 252.878906 528.226562 C 253.703125 527.113281 254.558594 526.019531 255.4375 524.945312 C 256.320312 523.871094 257.222656 522.820312 258.15625 521.792969 C 259.089844 520.765625 260.042969 519.761719 261.027344 518.78125 C 262.007812 517.796875 263.011719 516.84375 264.039062 515.910156 C 265.066406 514.980469 266.117188 514.074219 267.191406 513.191406 C 268.265625 512.3125 269.355469 511.457031 270.472656 510.632812 C 271.585938 509.804688 272.71875 509.007812 273.875 508.234375 C 275.027344 507.464844 276.199219 506.722656 277.390625 506.007812 C 278.582031 505.296875 279.789062 504.613281 281.011719 503.957031 C 282.234375 503.304688 283.472656 502.679688 284.726562 502.085938 C 285.984375 501.492188 287.25 500.929688 288.53125 500.398438 C 289.816406 499.871094 291.109375 499.371094 292.414062 498.902344 C 293.722656 498.433594 295.039062 498 296.367188 497.597656 C 297.695312 497.195312 299.03125 496.824219 300.378906 496.488281 C 301.722656 496.148438 303.078125 495.847656 304.4375 495.574219 C 305.800781 495.304688 307.167969 495.066406 308.539062 494.863281 C 309.910156 494.660156 311.289062 494.492188 312.667969 494.355469 C 314.050781 494.21875 315.433594 494.117188 316.820312 494.046875 C 318.207031 493.980469 319.59375 493.945312 320.980469 493.945312 L 694.429688 493.945312 C 695.816406 493.945312 697.203125 493.980469 698.589844 494.046875 C 699.976562 494.117188 701.359375 494.21875 702.738281 494.355469 C 704.121094 494.492188 705.496094 494.660156 706.871094 494.863281 C 708.242188 495.066406 709.609375 495.304688 710.96875 495.574219 C 712.332031 495.847656 713.683594 496.148438 715.03125 496.488281 C 716.378906 496.824219 717.714844 497.195312 719.042969 497.597656 C 720.371094 498 721.6875 498.433594 722.992188 498.902344 C 724.300781 499.371094 725.59375 499.871094 726.875 500.398438 C 728.160156 500.929688 729.425781 501.492188 730.679688 502.085938 C 731.933594 502.679688 733.175781 503.304688 734.398438 503.957031 C 735.621094 504.613281 736.828125 505.296875 738.019531 506.007812 C 739.210938 506.722656 740.382812 507.464844 741.535156 508.234375 C 742.6875 509.007812 743.824219 509.804688 744.9375 510.632812 C 746.050781 511.457031 747.144531 512.3125 748.21875 513.191406 C 749.289062 514.074219 750.339844 514.980469 751.371094 515.910156 C 752.398438 516.84375 753.402344 517.796875 754.382812 518.78125 C 755.363281 519.761719 756.320312 520.765625 757.253906 521.792969 C 758.183594 522.820312 759.089844 523.871094 759.972656 524.945312 C 760.851562 526.019531 761.703125 527.113281 762.53125 528.226562 C 763.359375 529.339844 764.15625 530.472656 764.929688 531.628906 C 765.699219 532.78125 766.441406 533.953125 767.152344 535.144531 C 767.867188 536.335938 768.550781 537.542969 769.207031 538.765625 C 769.859375 539.988281 770.484375 541.226562 771.078125 542.484375 C 771.667969 543.738281 772.230469 545.003906 772.761719 546.285156 C 773.292969 547.570312 773.792969 548.863281 774.261719 550.167969 C 774.726562 551.476562 775.164062 552.792969 775.566406 554.121094 C 775.96875 555.449219 776.339844 556.785156 776.675781 558.132812 C 777.011719 559.476562 777.316406 560.832031 777.585938 562.191406 C 777.859375 563.554688 778.097656 564.921875 778.300781 566.292969 C 778.503906 567.664062 778.671875 569.042969 778.808594 570.421875 C 778.945312 571.804688 779.046875 573.1875 779.113281 574.574219 C 779.183594 575.960938 779.21875 577.347656 779.21875 578.734375 Z M 149.476562 356.898438 L 149.476562 475.832031 C 149.476562 476.339844 149.429688 476.839844 149.328125 477.335938 C 149.230469 477.832031 149.085938 478.316406 148.890625 478.78125 C 148.695312 479.25 148.460938 479.695312 148.179688 480.113281 C 147.898438 480.535156 147.578125 480.925781 147.21875 481.28125 C 146.863281 481.640625 146.472656 481.960938 146.050781 482.242188 C 145.632812 482.523438 145.1875 482.761719 144.71875 482.953125 C 144.25 483.148438 143.769531 483.292969 143.273438 483.390625 C 142.777344 483.492188 142.277344 483.539062 141.769531 483.539062 C 141.265625 483.539062 140.761719 483.492188 140.265625 483.390625 C 139.769531 483.292969 139.289062 483.148438 138.820312 482.953125 C 138.351562 482.761719 137.910156 482.523438 137.488281 482.242188 C 137.066406 481.960938 136.675781 481.640625 136.320312 481.28125 C 135.960938 480.925781 135.640625 480.535156 135.359375 480.113281 C 135.078125 479.695312 134.84375 479.25 134.648438 478.78125 C 134.453125 478.316406 134.308594 477.832031 134.210938 477.335938 C 134.109375 476.839844 134.0625 476.339844 134.0625 475.832031 L 134.0625 356.898438 L 23.144531 356.898438 C 22.636719 356.898438 22.136719 356.851562 21.640625 356.75 C 21.144531 356.652344 20.664062 356.507812 20.195312 356.3125 C 19.726562 356.117188 19.28125 355.882812 18.863281 355.601562 C 18.441406 355.320312 18.050781 355 17.695312 354.640625 C 17.335938 354.285156 17.015625 353.894531 16.734375 353.472656 C 16.453125 353.050781 16.21875 352.609375 16.023438 352.140625 C 15.828125 351.671875 15.683594 351.191406 15.585938 350.695312 C 15.484375 350.199219 15.4375 349.695312 15.4375 349.191406 C 15.4375 348.683594 15.484375 348.183594 15.585938 347.6875 C 15.683594 347.191406 15.828125 346.707031 16.023438 346.242188 C 16.21875 345.773438 16.453125 345.328125 16.734375 344.910156 C 17.015625 344.488281 17.335938 344.097656 17.695312 343.742188 C 18.050781 343.382812 18.441406 343.0625 18.863281 342.78125 C 19.28125 342.5 19.726562 342.261719 20.195312 342.070312 C 20.664062 341.875 21.144531 341.730469 21.640625 341.632812 C 22.136719 341.53125 22.636719 341.484375 23.144531 341.484375 L 134.0625 341.484375 L 134.0625 222.703125 C 134.0625 222.199219 134.109375 221.695312 134.210938 221.199219 C 134.308594 220.703125 134.453125 220.222656 134.648438 219.753906 C 134.84375 219.285156 135.078125 218.84375 135.359375 218.421875 C 135.640625 218 135.960938 217.609375 136.320312 217.253906 C 136.675781 216.894531 137.066406 216.574219 137.488281 216.292969 C 137.910156 216.011719 138.351562 215.777344 138.820312 215.582031 C 139.289062 215.390625 139.769531 215.242188 140.265625 215.144531 C 140.761719 215.046875 141.265625 214.996094 141.769531 214.996094 C 142.277344 214.996094 142.777344 215.046875 143.273438 215.144531 C 143.769531 215.242188 144.25 215.390625 144.71875 215.582031 C 145.1875 215.777344 145.632812 216.011719 146.050781 216.292969 C 146.472656 216.574219 146.863281 216.894531 147.21875 217.253906 C 147.578125 217.609375 147.898438 218 148.179688 218.421875 C 148.460938 218.84375 148.695312 219.285156 148.890625 219.753906 C 149.085938 220.222656 149.230469 220.703125 149.328125 221.199219 C 149.429688 221.695312 149.476562 222.199219 149.476562 222.703125 L 149.476562 341.558594 L 276.042969 341.558594 C 276.546875 341.558594 277.050781 341.609375 277.546875 341.707031 C 278.042969 341.808594 278.523438 341.953125 278.992188 342.148438 C 279.460938 342.339844 279.902344 342.578125 280.324219 342.859375 C 280.746094 343.140625 281.132812 343.460938 281.492188 343.816406 C 281.851562 344.175781 282.167969 344.566406 282.449219 344.984375 C 282.730469 345.40625 282.96875 345.851562 283.164062 346.320312 C 283.355469 346.785156 283.503906 347.269531 283.601562 347.765625 C 283.699219 348.261719 283.75 348.761719 283.75 349.269531 C 283.75 349.773438 283.699219 350.277344 283.601562 350.773438 C 283.503906 351.269531 283.355469 351.75 283.164062 352.21875 C 282.96875 352.683594 282.730469 353.128906 282.449219 353.550781 C 282.167969 353.972656 281.851562 354.359375 281.492188 354.71875 C 281.132812 355.078125 280.746094 355.394531 280.324219 355.675781 C 279.902344 355.957031 279.460938 356.195312 278.992188 356.390625 C 278.523438 356.582031 278.042969 356.730469 277.546875 356.828125 C 277.050781 356.925781 276.546875 356.976562 276.042969 356.976562 Z M 149.476562 356.898438 " fill-opacity="1" fill-rule="nonzero"/></g></svg>