<svg xmlns="http://www.w3.org/2000/svg" xmlns:xlink="http://www.w3.org/1999/xlink" width="1080" zoomAndPan="magnify" viewBox="0 0 810 809.999993" height="1080" preserveAspectRatio="xMidYMid meet" version="1.0"><path fill="#0cc0df" d="M 532.894531 0 L 106.578125 0 C 104.835938 0 103.09375 0.046875 101.351562 0.132812 C 99.609375 0.222656 97.871094 0.351562 96.136719 0.523438 C 94.402344 0.695312 92.671875 0.910156 90.945312 1.167969 C 89.222656 1.425781 87.503906 1.726562 85.792969 2.066406 C 84.085938 2.40625 82.382812 2.792969 80.691406 3.214844 C 79 3.640625 77.320312 4.105469 75.652344 4.613281 C 73.984375 5.121094 72.328125 5.667969 70.6875 6.257812 C 69.046875 6.847656 67.421875 7.476562 65.808594 8.144531 C 64.199219 8.8125 62.605469 9.519531 61.03125 10.265625 C 59.453125 11.011719 57.898438 11.796875 56.359375 12.617188 C 54.824219 13.441406 53.304688 14.300781 51.8125 15.195312 C 50.316406 16.09375 48.84375 17.027344 47.394531 17.996094 C 45.945312 18.964844 44.519531 19.96875 43.117188 21.007812 C 41.71875 22.046875 40.34375 23.121094 38.996094 24.226562 C 37.648438 25.332031 36.328125 26.472656 35.035156 27.644531 C 33.746094 28.8125 32.480469 30.015625 31.25 31.25 C 30.015625 32.480469 28.8125 33.746094 27.644531 35.035156 C 26.472656 36.328125 25.332031 37.648438 24.226562 38.996094 C 23.121094 40.34375 22.046875 41.71875 21.007812 43.117188 C 19.96875 44.519531 18.964844 45.945312 17.996094 47.394531 C 17.027344 48.84375 16.09375 50.316406 15.195312 51.8125 C 14.300781 53.304688 13.441406 54.824219 12.617188 56.359375 C 11.796875 57.898438 11.011719 59.453125 10.265625 61.03125 C 9.519531 62.605469 8.8125 64.199219 8.144531 65.808594 C 7.476562 67.421875 6.847656 69.046875 6.257812 70.6875 C 5.667969 72.328125 5.121094 73.984375 4.613281 75.652344 C 4.105469 77.320312 3.640625 79 3.214844 80.691406 C 2.792969 82.382812 2.40625 84.085938 2.066406 85.792969 C 1.726562 87.503906 1.425781 89.222656 1.167969 90.945312 C 0.910156 92.671875 0.695312 94.402344 0.523438 96.136719 C 0.351562 97.871094 0.222656 99.609375 0.132812 101.351562 C 0.046875 103.09375 0 104.835938 0 106.578125 L 0 575.527344 C 0 576.511719 0.0664062 577.492188 0.203125 578.464844 C 0.335938 579.441406 0.539062 580.402344 0.808594 581.351562 C 1.078125 582.296875 1.410156 583.222656 1.808594 584.125 C 2.203125 585.027344 2.660156 585.894531 3.179688 586.734375 C 3.695312 587.570312 4.269531 588.371094 4.898438 589.128906 C 5.527344 589.886719 6.203125 590.597656 6.929688 591.261719 C 7.65625 591.925781 8.425781 592.539062 9.238281 593.09375 C 10.050781 593.652344 10.894531 594.152344 11.777344 594.59375 C 12.65625 595.035156 13.566406 595.410156 14.5 595.726562 C 15.429688 596.039062 16.382812 596.289062 17.351562 596.472656 C 18.316406 596.65625 19.292969 596.769531 20.277344 596.816406 C 21.261719 596.863281 22.242188 596.84375 23.222656 596.753906 C 24.203125 596.667969 25.175781 596.511719 26.132812 596.289062 C 27.09375 596.066406 28.03125 595.777344 28.953125 595.421875 C 29.871094 595.070312 30.761719 594.652344 31.621094 594.175781 C 32.484375 593.699219 33.308594 593.164062 34.097656 592.574219 L 198.960938 468.949219 L 532.894531 468.949219 C 534.636719 468.945312 536.382812 468.902344 538.121094 468.8125 C 539.863281 468.726562 541.601562 468.597656 543.335938 468.425781 C 545.074219 468.25 546.804688 468.035156 548.527344 467.78125 C 550.253906 467.523438 551.96875 467.222656 553.679688 466.882812 C 555.390625 466.539062 557.089844 466.15625 558.78125 465.730469 C 560.472656 465.304688 562.152344 464.839844 563.820312 464.332031 C 565.488281 463.824219 567.144531 463.277344 568.785156 462.6875 C 570.425781 462.101562 572.050781 461.472656 573.664062 460.804688 C 575.273438 460.136719 576.867188 459.429688 578.441406 458.683594 C 580.019531 457.9375 581.574219 457.152344 583.113281 456.328125 C 584.652344 455.507812 586.167969 454.648438 587.664062 453.75 C 589.160156 452.851562 590.628906 451.921875 592.082031 450.949219 C 593.53125 449.980469 594.953125 448.976562 596.355469 447.9375 C 597.753906 446.898438 599.128906 445.828125 600.476562 444.722656 C 601.824219 443.613281 603.144531 442.476562 604.4375 441.304688 C 605.730469 440.132812 606.992188 438.929688 608.226562 437.699219 C 609.457031 436.464844 610.660156 435.203125 611.832031 433.910156 C 613.003906 432.617188 614.140625 431.300781 615.246094 429.953125 C 616.355469 428.601562 617.425781 427.230469 618.464844 425.828125 C 619.503906 424.429688 620.507812 423.003906 621.476562 421.554688 C 622.445312 420.105469 623.378906 418.632812 624.277344 417.136719 C 625.171875 415.640625 626.035156 414.125 626.855469 412.585938 C 627.679688 411.050781 628.464844 409.492188 629.210938 407.917969 C 629.957031 406.339844 630.664062 404.746094 631.332031 403.136719 C 632 401.527344 632.628906 399.898438 633.214844 398.257812 C 633.804688 396.617188 634.351562 394.960938 634.859375 393.292969 C 635.367188 391.625 635.832031 389.945312 636.257812 388.253906 C 636.683594 386.5625 637.066406 384.863281 637.40625 383.152344 C 637.75 381.441406 638.046875 379.726562 638.304688 378 C 638.5625 376.277344 638.777344 374.546875 638.949219 372.8125 C 639.121094 371.078125 639.253906 369.339844 639.339844 367.597656 C 639.425781 365.855469 639.472656 364.113281 639.472656 362.367188 L 639.472656 106.578125 C 639.472656 104.835938 639.425781 103.09375 639.339844 101.351562 C 639.253906 99.609375 639.121094 97.871094 638.949219 96.136719 C 638.777344 94.402344 638.5625 92.671875 638.304688 90.945312 C 638.046875 89.222656 637.75 87.503906 637.40625 85.792969 C 637.066406 84.085938 636.683594 82.382812 636.257812 80.691406 C 635.832031 79 635.367188 77.320312 634.859375 75.652344 C 634.351562 73.984375 633.804688 72.328125 633.214844 70.6875 C 632.628906 69.046875 632 67.421875 631.332031 65.808594 C 630.664062 64.199219 629.957031 62.605469 629.210938 61.03125 C 628.464844 59.453125 627.679688 57.898438 626.855469 56.359375 C 626.035156 54.824219 625.171875 53.304688 624.277344 51.8125 C 623.378906 50.316406 622.445312 48.84375 621.476562 47.394531 C 620.507812 45.945312 619.503906 44.519531 618.464844 43.117188 C 617.425781 41.71875 616.355469 40.34375 615.246094 38.996094 C 614.140625 37.648438 613.003906 36.328125 611.832031 35.035156 C 610.660156 33.746094 609.457031 32.480469 608.226562 31.25 C 606.992188 30.015625 605.730469 28.8125 604.4375 27.644531 C 603.144531 26.472656 601.824219 25.332031 600.476562 24.226562 C 599.128906 23.121094 597.753906 22.046875 596.355469 21.007812 C 594.953125 19.96875 593.53125 18.964844 592.082031 17.996094 C 590.628906 17.027344 589.160156 16.09375 587.664062 15.195312 C 586.167969 14.300781 584.652344 13.441406 583.113281 12.617188 C 581.574219 11.796875 580.019531 11.011719 578.441406 10.265625 C 576.867188 9.519531 575.273438 8.8125 573.664062 8.144531 C 572.050781 7.476562 570.425781 6.847656 568.785156 6.257812 C 567.144531 5.667969 565.488281 5.121094 563.820312 4.613281 C 562.152344 4.105469 560.472656 3.640625 558.78125 3.214844 C 557.089844 2.792969 555.390625 2.40625 553.679688 2.066406 C 551.96875 1.726562 550.253906 1.425781 548.527344 1.167969 C 546.804688 0.910156 545.074219 0.695312 543.335938 0.523438 C 541.601562 0.351562 539.863281 0.222656 538.121094 0.132812 C 536.382812 0.046875 534.636719 0 532.894531 0 Z M 596.84375 362.367188 C 596.839844 363.414062 596.8125 364.460938 596.761719 365.503906 C 596.710938 366.550781 596.632812 367.59375 596.527344 368.632812 C 596.425781 369.675781 596.296875 370.714844 596.140625 371.746094 C 595.988281 372.78125 595.808594 373.8125 595.601562 374.839844 C 595.398438 375.863281 595.167969 376.886719 594.910156 377.898438 C 594.65625 378.914062 594.378906 379.921875 594.074219 380.921875 C 593.769531 381.925781 593.441406 382.917969 593.085938 383.902344 C 592.734375 384.886719 592.355469 385.863281 591.957031 386.828125 C 591.554688 387.796875 591.128906 388.75 590.683594 389.695312 C 590.234375 390.644531 589.765625 391.578125 589.269531 392.5 C 588.777344 393.421875 588.261719 394.332031 587.722656 395.230469 C 587.183594 396.125 586.625 397.007812 586.042969 397.878906 C 585.460938 398.75 584.859375 399.605469 584.234375 400.445312 C 583.613281 401.285156 582.96875 402.109375 582.304688 402.917969 C 581.640625 403.726562 580.957031 404.519531 580.253906 405.292969 C 579.554688 406.066406 578.832031 406.824219 578.09375 407.566406 C 577.351562 408.304688 576.59375 409.027344 575.820312 409.730469 C 575.042969 410.433594 574.253906 411.113281 573.445312 411.777344 C 572.636719 412.441406 571.808594 413.085938 570.96875 413.710938 C 570.128906 414.332031 569.273438 414.9375 568.40625 415.515625 C 567.535156 416.097656 566.652344 416.660156 565.753906 417.195312 C 564.859375 417.734375 563.949219 418.25 563.027344 418.746094 C 562.101562 419.238281 561.167969 419.707031 560.222656 420.15625 C 559.277344 420.605469 558.320312 421.027344 557.355469 421.429688 C 556.390625 421.832031 555.414062 422.207031 554.429688 422.558594 C 553.445312 422.914062 552.449219 423.242188 551.449219 423.546875 C 550.449219 423.851562 549.441406 424.128906 548.425781 424.386719 C 547.410156 424.640625 546.390625 424.871094 545.367188 425.074219 C 544.339844 425.28125 543.308594 425.460938 542.273438 425.613281 C 541.238281 425.769531 540.203125 425.898438 539.160156 426 C 538.121094 426.105469 537.078125 426.183594 536.03125 426.234375 C 534.988281 426.289062 533.941406 426.316406 532.894531 426.316406 L 191.84375 426.316406 C 189.535156 426.3125 187.289062 426.675781 185.105469 427.40625 C 182.917969 428.136719 180.902344 429.195312 179.0625 430.582031 L 42.632812 532.894531 L 42.632812 106.578125 C 42.632812 105.53125 42.660156 104.488281 42.710938 103.441406 C 42.765625 102.398438 42.84375 101.355469 42.945312 100.3125 C 43.050781 99.273438 43.179688 98.234375 43.332031 97.199219 C 43.488281 96.164062 43.667969 95.132812 43.871094 94.109375 C 44.078125 93.082031 44.308594 92.0625 44.5625 91.046875 C 44.816406 90.03125 45.097656 89.023438 45.402344 88.023438 C 45.707031 87.023438 46.035156 86.03125 46.386719 85.046875 C 46.738281 84.058594 47.117188 83.085938 47.519531 82.117188 C 47.917969 81.152344 48.34375 80.195312 48.789062 79.25 C 49.238281 78.304688 49.710938 77.371094 50.203125 76.449219 C 50.695312 75.527344 51.210938 74.617188 51.75 73.71875 C 52.289062 72.820312 52.847656 71.9375 53.429688 71.066406 C 54.011719 70.199219 54.613281 69.34375 55.238281 68.503906 C 55.859375 67.664062 56.503906 66.839844 57.167969 66.03125 C 57.832031 65.222656 58.515625 64.429688 59.21875 63.652344 C 59.921875 62.878906 60.640625 62.121094 61.382812 61.382812 C 62.121094 60.640625 62.878906 59.921875 63.652344 59.21875 C 64.429688 58.515625 65.222656 57.832031 66.03125 57.167969 C 66.839844 56.503906 67.664062 55.859375 68.503906 55.238281 C 69.34375 54.613281 70.199219 54.011719 71.066406 53.429688 C 71.9375 52.847656 72.820312 52.289062 73.71875 51.75 C 74.617188 51.210938 75.527344 50.695312 76.449219 50.203125 C 77.371094 49.710938 78.304688 49.238281 79.25 48.789062 C 80.195312 48.34375 81.152344 47.917969 82.117188 47.519531 C 83.085938 47.117188 84.058594 46.738281 85.046875 46.386719 C 86.03125 46.035156 87.023438 45.707031 88.023438 45.402344 C 89.023438 45.097656 90.03125 44.816406 91.046875 44.5625 C 92.0625 44.308594 93.082031 44.078125 94.109375 43.871094 C 95.132812 43.667969 96.164062 43.488281 97.199219 43.332031 C 98.234375 43.179688 99.273438 43.050781 100.3125 42.945312 C 101.355469 42.84375 102.398438 42.765625 103.441406 42.710938 C 104.488281 42.660156 105.53125 42.632812 106.578125 42.632812 L 532.894531 42.632812 C 533.941406 42.632812 534.988281 42.660156 536.03125 42.710938 C 537.078125 42.765625 538.121094 42.84375 539.160156 42.945312 C 540.203125 43.050781 541.238281 43.179688 542.273438 43.332031 C 543.308594 43.488281 544.339844 43.667969 545.367188 43.871094 C 546.390625 44.078125 547.410156 44.308594 548.425781 44.5625 C 549.441406 44.816406 550.449219 45.097656 551.449219 45.402344 C 552.449219 45.707031 553.445312 46.035156 554.429688 46.386719 C 555.414062 46.738281 556.390625 47.117188 557.355469 47.519531 C 558.320312 47.917969 559.277344 48.34375 560.222656 48.789062 C 561.167969 49.238281 562.101562 49.710938 563.027344 50.203125 C 563.949219 50.695312 564.859375 51.210938 565.753906 51.75 C 566.652344 52.289062 567.535156 52.847656 568.40625 53.429688 C 569.273438 54.011719 570.128906 54.613281 570.96875 55.238281 C 571.8125 55.859375 572.636719 56.503906 573.445312 57.167969 C 574.253906 57.832031 575.042969 58.515625 575.820312 59.21875 C 576.59375 59.921875 577.351562 60.640625 578.09375 61.382812 C 578.832031 62.121094 579.554688 62.878906 580.253906 63.652344 C 580.957031 64.429688 581.640625 65.222656 582.304688 66.03125 C 582.96875 66.839844 583.613281 67.664062 584.234375 68.503906 C 584.859375 69.34375 585.460938 70.199219 586.042969 71.066406 C 586.625 71.9375 587.183594 72.820312 587.722656 73.71875 C 588.261719 74.617188 588.777344 75.527344 589.269531 76.449219 C 589.765625 77.371094 590.234375 78.304688 590.683594 79.25 C 591.128906 80.195312 591.554688 81.152344 591.957031 82.117188 C 592.355469 83.085938 592.734375 84.058594 593.085938 85.046875 C 593.441406 86.03125 593.769531 87.023438 594.074219 88.023438 C 594.378906 89.023438 594.65625 90.03125 594.910156 91.046875 C 595.167969 92.0625 595.398438 93.082031 595.601562 94.109375 C 595.808594 95.132812 595.988281 96.164062 596.140625 97.199219 C 596.296875 98.234375 596.425781 99.273438 596.527344 100.3125 C 596.632812 101.355469 596.710938 102.398438 596.761719 103.441406 C 596.8125 104.488281 596.839844 105.53125 596.84375 106.578125 Z M 767.367188 746.050781 L 767.367188 319.738281 C 767.367188 318.691406 767.339844 317.644531 767.289062 316.601562 C 767.234375 315.554688 767.15625 314.511719 767.054688 313.472656 C 766.949219 312.429688 766.820312 311.390625 766.667969 310.355469 C 766.511719 309.324219 766.332031 308.292969 766.128906 307.265625 C 765.921875 306.238281 765.691406 305.21875 765.4375 304.207031 C 765.183594 303.191406 764.902344 302.183594 764.597656 301.183594 C 764.292969 300.179688 763.964844 299.1875 763.613281 298.203125 C 763.257812 297.21875 762.882812 296.242188 762.480469 295.277344 C 762.082031 294.308594 761.65625 293.355469 761.207031 292.40625 C 760.761719 291.460938 760.289062 290.527344 759.796875 289.605469 C 759.304688 288.683594 758.789062 287.773438 758.25 286.875 C 757.710938 285.980469 757.152344 285.097656 756.570312 284.226562 C 755.988281 283.355469 755.386719 282.5 754.761719 281.660156 C 754.140625 280.820312 753.496094 279.996094 752.832031 279.1875 C 752.167969 278.378906 751.484375 277.585938 750.78125 276.8125 C 750.078125 276.035156 749.359375 275.28125 748.617188 274.539062 C 747.878906 273.800781 747.121094 273.078125 746.34375 272.375 C 745.570312 271.671875 744.777344 270.988281 743.96875 270.328125 C 743.160156 269.664062 742.335938 269.019531 741.496094 268.394531 C 740.65625 267.773438 739.800781 267.167969 738.933594 266.589844 C 738.0625 266.007812 737.179688 265.445312 736.28125 264.910156 C 735.382812 264.371094 734.472656 263.855469 733.550781 263.359375 C 732.628906 262.867188 731.695312 262.398438 730.75 261.949219 C 729.804688 261.5 728.847656 261.078125 727.882812 260.675781 C 726.914062 260.273438 725.941406 259.898438 724.953125 259.542969 C 723.96875 259.191406 722.976562 258.863281 721.976562 258.558594 C 720.976562 258.253906 719.96875 257.976562 718.953125 257.71875 C 717.9375 257.464844 716.917969 257.234375 715.890625 257.03125 C 714.867188 256.824219 713.835938 256.644531 712.800781 256.492188 C 711.765625 256.335938 710.726562 256.207031 709.6875 256.105469 C 708.644531 256 707.601562 255.921875 706.558594 255.871094 C 705.511719 255.816406 704.46875 255.789062 703.421875 255.789062 L 703.421875 213.15625 C 705.164062 213.160156 706.90625 213.203125 708.648438 213.292969 C 710.390625 213.378906 712.128906 213.507812 713.863281 213.679688 C 715.597656 213.855469 717.328125 214.070312 719.054688 214.324219 C 720.777344 214.582031 722.496094 214.882812 724.207031 215.222656 C 725.914062 215.566406 727.617188 215.949219 729.308594 216.375 C 731 216.800781 732.679688 217.265625 734.347656 217.773438 C 736.015625 218.28125 737.671875 218.828125 739.3125 219.414062 C 740.953125 220.003906 742.578125 220.632812 744.191406 221.300781 C 745.800781 221.96875 747.394531 222.675781 748.96875 223.421875 C 750.546875 224.167969 752.101562 224.953125 753.640625 225.777344 C 755.175781 226.597656 756.695312 227.457031 758.1875 228.355469 C 759.683594 229.25 761.15625 230.183594 762.605469 231.152344 C 764.054688 232.125 765.480469 233.128906 766.882812 234.167969 C 768.28125 235.207031 769.65625 236.277344 771.003906 237.382812 C 772.351562 238.492188 773.671875 239.628906 774.964844 240.800781 C 776.253906 241.972656 777.519531 243.175781 778.75 244.40625 C 779.984375 245.640625 781.1875 246.902344 782.355469 248.195312 C 783.527344 249.488281 784.667969 250.804688 785.773438 252.152344 C 786.878906 253.5 787.953125 254.875 788.992188 256.277344 C 790.03125 257.675781 791.035156 259.101562 792.003906 260.550781 C 792.972656 262 793.90625 263.472656 794.804688 264.96875 C 795.699219 266.464844 796.558594 267.980469 797.382812 269.519531 C 798.203125 271.054688 798.988281 272.613281 799.734375 274.1875 C 800.480469 275.765625 801.1875 277.359375 801.855469 278.96875 C 802.523438 280.578125 803.152344 282.203125 803.742188 283.847656 C 804.332031 285.488281 804.878906 287.144531 805.386719 288.8125 C 805.894531 290.480469 806.359375 292.160156 806.785156 293.851562 C 807.207031 295.542969 807.59375 297.242188 807.933594 298.953125 C 808.273438 300.660156 808.574219 302.378906 808.832031 304.105469 C 809.089844 305.828125 809.304688 307.558594 809.476562 309.292969 C 809.648438 311.027344 809.777344 312.765625 809.867188 314.507812 C 809.953125 316.25 810 317.992188 810 319.738281 L 810 788.683594 C 810 789.667969 809.933594 790.648438 809.796875 791.625 C 809.660156 792.601562 809.460938 793.5625 809.191406 794.507812 C 808.921875 795.457031 808.589844 796.382812 808.191406 797.28125 C 807.796875 798.183594 807.339844 799.054688 806.820312 799.890625 C 806.304688 800.730469 805.730469 801.527344 805.101562 802.285156 C 804.472656 803.042969 803.796875 803.753906 803.070312 804.421875 C 802.34375 805.085938 801.574219 805.695312 800.761719 806.253906 C 799.949219 806.8125 799.105469 807.308594 798.222656 807.75 C 797.34375 808.191406 796.433594 808.570312 795.5 808.882812 C 794.570312 809.199219 793.617188 809.445312 792.648438 809.628906 C 791.683594 809.8125 790.707031 809.925781 789.722656 809.976562 C 788.738281 810.023438 787.757812 810.003906 786.777344 809.914062 C 785.796875 809.824219 784.824219 809.667969 783.867188 809.445312 C 782.90625 809.222656 781.96875 808.933594 781.046875 808.582031 C 780.128906 808.226562 779.238281 807.8125 778.378906 807.335938 C 777.515625 806.859375 776.691406 806.324219 775.902344 805.734375 L 611.039062 682.105469 L 277.105469 682.105469 C 275.363281 682.101562 273.617188 682.058594 271.878906 681.972656 C 270.136719 681.882812 268.398438 681.753906 266.664062 681.582031 C 264.925781 681.410156 263.195312 681.195312 261.472656 680.9375 C 259.746094 680.679688 258.03125 680.378906 256.320312 680.039062 C 254.609375 679.699219 252.910156 679.3125 251.21875 678.890625 C 249.527344 678.464844 247.847656 678 246.179688 677.492188 C 244.511719 676.984375 242.855469 676.4375 241.214844 675.847656 C 239.574219 675.257812 237.949219 674.628906 236.335938 673.960938 C 234.726562 673.292969 233.132812 672.585938 231.558594 671.839844 C 229.980469 671.09375 228.425781 670.308594 226.886719 669.488281 C 225.347656 668.664062 223.832031 667.804688 222.335938 666.90625 C 220.839844 666.011719 219.371094 665.078125 217.917969 664.109375 C 216.46875 663.140625 215.046875 662.136719 213.644531 661.097656 C 212.246094 660.058594 210.871094 658.984375 209.523438 657.878906 C 208.175781 656.773438 206.855469 655.632812 205.5625 654.460938 C 204.269531 653.292969 203.007812 652.089844 201.773438 650.855469 C 200.542969 649.625 199.339844 648.359375 198.167969 647.070312 C 197 645.777344 195.859375 644.457031 194.753906 643.109375 C 193.648438 641.761719 192.574219 640.386719 191.535156 638.988281 C 190.496094 637.585938 189.492188 636.160156 188.523438 634.710938 C 187.554688 633.261719 186.621094 631.789062 185.722656 630.292969 C 184.828125 628.800781 183.964844 627.28125 183.144531 625.746094 C 182.320312 624.207031 181.535156 622.652344 180.789062 621.074219 C 180.042969 619.5 179.335938 617.90625 178.667969 616.296875 C 178 614.683594 177.371094 613.058594 176.785156 611.417969 C 176.195312 609.773438 175.648438 608.121094 175.140625 606.453125 C 174.632812 604.785156 174.167969 603.105469 173.742188 601.414062 C 173.316406 599.722656 172.933594 598.019531 172.59375 596.3125 C 172.25 594.601562 171.953125 592.882812 171.695312 591.160156 C 171.4375 589.433594 171.222656 587.703125 171.050781 585.96875 C 170.878906 584.234375 170.746094 582.496094 170.660156 580.753906 C 170.574219 579.011719 170.527344 577.269531 170.527344 575.527344 L 170.527344 570.207031 L 213.15625 538.234375 L 213.15625 575.527344 C 213.160156 576.574219 213.1875 577.617188 213.238281 578.664062 C 213.289062 579.707031 213.367188 580.75 213.472656 581.792969 C 213.574219 582.832031 213.703125 583.871094 213.859375 584.90625 C 214.011719 585.941406 214.191406 586.972656 214.398438 587.996094 C 214.601562 589.023438 214.832031 590.042969 215.089844 591.058594 C 215.34375 592.074219 215.621094 593.082031 215.925781 594.082031 C 216.230469 595.082031 216.558594 596.074219 216.914062 597.058594 C 217.265625 598.046875 217.644531 599.019531 218.042969 599.988281 C 218.445312 600.953125 218.871094 601.910156 219.316406 602.855469 C 219.765625 603.800781 220.234375 604.734375 220.730469 605.65625 C 221.222656 606.578125 221.738281 607.488281 222.277344 608.386719 C 222.816406 609.285156 223.375 610.167969 223.957031 611.039062 C 224.539062 611.90625 225.140625 612.761719 225.765625 613.601562 C 226.386719 614.441406 227.03125 615.265625 227.695312 616.074219 C 228.359375 616.882812 229.042969 617.675781 229.746094 618.449219 C 230.445312 619.226562 231.167969 619.984375 231.90625 620.722656 C 232.648438 621.464844 233.40625 622.183594 234.179688 622.886719 C 234.957031 623.589844 235.746094 624.273438 236.554688 624.9375 C 237.363281 625.601562 238.1875 626.246094 239.03125 626.867188 C 239.871094 627.492188 240.726562 628.09375 241.59375 628.675781 C 242.464844 629.257812 243.347656 629.816406 244.246094 630.355469 C 245.140625 630.894531 246.050781 631.410156 246.972656 631.902344 C 247.898438 632.394531 248.832031 632.867188 249.777344 633.3125 C 250.722656 633.761719 251.679688 634.1875 252.644531 634.585938 C 253.609375 634.988281 254.585938 635.363281 255.570312 635.71875 C 256.554688 636.070312 257.550781 636.398438 258.550781 636.703125 C 259.550781 637.007812 260.558594 637.289062 261.574219 637.542969 C 262.589844 637.796875 263.609375 638.027344 264.632812 638.234375 C 265.660156 638.4375 266.691406 638.617188 267.726562 638.773438 C 268.761719 638.925781 269.796875 639.054688 270.839844 639.160156 C 271.878906 639.261719 272.921875 639.339844 273.96875 639.394531 C 275.011719 639.445312 276.058594 639.472656 277.105469 639.472656 L 618.15625 639.472656 C 620.464844 639.472656 622.710938 639.835938 624.894531 640.566406 C 627.082031 641.296875 629.097656 642.355469 630.9375 643.742188 Z M 767.367188 746.050781 " fill-opacity="1" fill-rule="nonzero"/></svg>