<svg xmlns="http://www.w3.org/2000/svg" xmlns:xlink="http://www.w3.org/1999/xlink" width="1080" zoomAndPan="magnify" viewBox="0 0 810 809.999993" height="1080" preserveAspectRatio="xMidYMid meet" version="1.0"><defs><clipPath id="0376d2f5d6"><path d="M 53.945312 3.796875 L 755.945312 3.796875 L 755.945312 806.296875 L 53.945312 806.296875 Z M 53.945312 3.796875 " clip-rule="nonzero"/></clipPath></defs><path fill="#ff0000" d="M 541.417969 380.023438 C 527.414062 379.019531 515.4375 388.9375 514.164062 402.734375 C 514.164062 402.734375 491.441406 652.652344 491.367188 653.472656 C 488.472656 685.335938 538.332031 690.414062 541.320312 658.027344 L 564.121094 407.265625 C 565.367188 393.480469 555.207031 381.285156 541.417969 380.023438 Z M 541.417969 380.023438 " fill-opacity="1" fill-rule="nonzero"/><path fill="#ff0000" d="M 268.582031 380.023438 C 254.792969 381.285156 244.632812 393.480469 245.878906 407.265625 C 245.878906 407.265625 268.628906 657.476562 268.679688 658.027344 C 271.59375 690.113281 321.566406 685.847656 318.632812 653.476562 L 295.835938 402.734375 C 294.5625 388.9375 282.613281 379.054688 268.582031 380.023438 Z M 268.582031 380.023438 " fill-opacity="1" fill-rule="nonzero"/><g clip-path="url(#0376d2f5d6)"><path fill="#ff0000" d="M 680.828125 104.097656 L 555.449219 104.097656 L 555.449219 79.023438 C 555.449219 37.539062 521.707031 3.796875 480.226562 3.796875 L 329.773438 3.796875 C 288.292969 3.796875 254.546875 37.539062 254.546875 79.023438 L 254.546875 104.097656 L 129.171875 104.097656 C 87.691406 104.097656 53.949219 137.839844 53.949219 179.324219 L 53.949219 229.472656 C 53.949219 264.484375 78.09375 293.730469 110.535156 302.082031 L 150.109375 737.90625 C 153.878906 776.84375 186.15625 806.203125 225.210938 806.203125 L 584.789062 806.203125 C 623.84375 806.203125 656.121094 776.84375 659.914062 737.761719 L 699.464844 302.082031 C 731.90625 293.730469 756.050781 264.484375 756.050781 229.472656 L 756.050781 179.324219 C 756.050781 137.839844 722.308594 104.097656 680.828125 104.097656 Z M 304.699219 79.023438 C 304.699219 65.199219 315.9375 53.949219 329.773438 53.949219 L 480.226562 53.949219 C 494.0625 53.949219 505.300781 65.199219 505.300781 79.023438 L 505.300781 104.097656 L 304.699219 104.097656 Z M 609.984375 733.058594 C 608.710938 746.183594 597.886719 756.050781 584.789062 756.050781 L 225.210938 756.050781 C 212.113281 756.050781 201.289062 746.183594 200.039062 733.207031 L 161.136719 304.699219 L 648.863281 304.699219 Z M 705.902344 229.472656 C 705.902344 243.296875 694.664062 254.550781 680.828125 254.550781 L 129.171875 254.550781 C 115.335938 254.550781 104.097656 243.296875 104.097656 229.472656 L 104.097656 179.324219 C 104.097656 165.5 115.335938 154.25 129.171875 154.25 L 680.828125 154.25 C 694.664062 154.25 705.902344 165.5 705.902344 179.324219 Z M 705.902344 229.472656 " fill-opacity="1" fill-rule="nonzero"/></g><path fill="#ff0000" d="M 405 379.925781 C 391.140625 379.925781 379.925781 391.152344 379.925781 405 C 379.925781 405 379.925781 655 379.925781 655.75 C 379.925781 687.828125 430.074219 688.292969 430.074219 655.753906 L 430.074219 405 C 430.074219 391.152344 418.859375 379.925781 405 379.925781 Z M 405 379.925781 " fill-opacity="1" fill-rule="nonzero"/></svg>