<svg xmlns="http://www.w3.org/2000/svg" xmlns:xlink="http://www.w3.org/1999/xlink" width="1080" zoomAndPan="magnify" viewBox="0 0 810 809.999993" height="1080" preserveAspectRatio="xMidYMid meet" version="1.0"><defs><g/><clipPath id="0b480752c4"><path d="M 431 296 L 627 296 L 627 463 L 431 463 Z M 431 296 " clip-rule="nonzero"/></clipPath><clipPath id="7e15ac061f"><path d="M 521.914062 239.824219 L 732.097656 340.070312 L 621.902344 571.117188 L 411.71875 470.871094 Z M 521.914062 239.824219 " clip-rule="nonzero"/></clipPath><clipPath id="6985d52b2e"><path d="M 521.914062 239.824219 L 732.097656 340.070312 L 621.902344 571.117188 L 411.71875 470.871094 Z M 521.914062 239.824219 " clip-rule="nonzero"/></clipPath><clipPath id="351c0fc698"><path d="M 425 330 L 666 330 L 666 479 L 425 479 Z M 425 330 " clip-rule="nonzero"/></clipPath><clipPath id="08edc6a8bc"><path d="M 521.914062 239.824219 L 732.097656 340.070312 L 621.902344 571.117188 L 411.71875 470.871094 Z M 521.914062 239.824219 " clip-rule="nonzero"/></clipPath><clipPath id="ecb4e2172d"><path d="M 521.914062 239.824219 L 732.097656 340.070312 L 621.902344 571.117188 L 411.71875 470.871094 Z M 521.914062 239.824219 " clip-rule="nonzero"/></clipPath><clipPath id="4900714970"><path d="M 438 264 L 588 264 L 588 444 L 438 444 Z M 438 264 " clip-rule="nonzero"/></clipPath><clipPath id="0df0e3427f"><path d="M 521.914062 239.824219 L 732.097656 340.070312 L 621.902344 571.117188 L 411.71875 470.871094 Z M 521.914062 239.824219 " clip-rule="nonzero"/></clipPath><clipPath id="00b679b9c9"><path d="M 521.914062 239.824219 L 732.097656 340.070312 L 621.902344 571.117188 L 411.71875 470.871094 Z M 521.914062 239.824219 " clip-rule="nonzero"/></clipPath><clipPath id="38001a045b"><path d="M 190 296 L 386 296 L 386 463 L 190 463 Z M 190 296 " clip-rule="nonzero"/></clipPath><clipPath id="525a1106e6"><path d="M 85.019531 339.390625 L 295.636719 240.058594 L 404.828125 471.585938 L 194.210938 570.914062 Z M 85.019531 339.390625 " clip-rule="nonzero"/></clipPath><clipPath id="fa103c939b"><path d="M 295.675781 240.042969 L 85.058594 339.375 L 194.25 570.898438 L 404.863281 471.566406 Z M 295.675781 240.042969 " clip-rule="nonzero"/></clipPath><clipPath id="653111c959"><path d="M 150 330 L 392 330 L 392 479 L 150 479 Z M 150 330 " clip-rule="nonzero"/></clipPath><clipPath id="77949210e1"><path d="M 85.019531 339.390625 L 295.636719 240.058594 L 404.828125 471.585938 L 194.210938 570.914062 Z M 85.019531 339.390625 " clip-rule="nonzero"/></clipPath><clipPath id="ec14c094e2"><path d="M 295.675781 240.042969 L 85.058594 339.375 L 194.25 570.898438 L 404.863281 471.566406 Z M 295.675781 240.042969 " clip-rule="nonzero"/></clipPath><clipPath id="7b6f76f564"><path d="M 229 264 L 379 264 L 379 445 L 229 445 Z M 229 264 " clip-rule="nonzero"/></clipPath><clipPath id="b7f2d01d65"><path d="M 85.019531 339.390625 L 295.636719 240.058594 L 404.828125 471.585938 L 194.210938 570.914062 Z M 85.019531 339.390625 " clip-rule="nonzero"/></clipPath><clipPath id="c0c8a881ef"><path d="M 295.675781 240.042969 L 85.058594 339.375 L 194.25 570.898438 L 404.863281 471.566406 Z M 295.675781 240.042969 " clip-rule="nonzero"/></clipPath><clipPath id="5483dafb78"><path d="M 298 162.667969 L 473 162.667969 L 473 221 L 298 221 Z M 298 162.667969 " clip-rule="nonzero"/></clipPath><clipPath id="5eb85a6220"><path d="M 335 217 L 479.558594 217 L 479.558594 429.777344 L 335 429.777344 Z M 335 217 " clip-rule="nonzero"/></clipPath></defs><g clip-path="url(#0b480752c4)"><g clip-path="url(#7e15ac061f)"><g clip-path="url(#6985d52b2e)"><path fill="#000000" d="M 626.453125 444.625 L 613.785156 296.929688 C 613.785156 296.929688 598.957031 298.714844 581.417969 304.171875 L 582.683594 318.960938 C 587.414062 318.730469 592.414062 318.839844 597.65625 319.402344 L 608.578125 426.425781 C 608.578125 426.425781 487.246094 412.453125 431.195312 462.152344 C 431.195312 462.152344 501.242188 420.117188 626.453125 444.625 " fill-opacity="1" fill-rule="nonzero"/></g></g></g><g clip-path="url(#351c0fc698)"><g clip-path="url(#08edc6a8bc)"><g clip-path="url(#ecb4e2172d)"><path fill="#000000" d="M 653.300781 330.945312 C 653.300781 330.945312 638.476562 332.730469 620.9375 338.1875 L 622.203125 352.972656 C 626.933594 352.742188 631.929688 352.855469 637.171875 353.417969 L 648.09375 460.441406 C 648.09375 460.441406 504.335938 428.105469 425.304688 477.707031 C 425.304688 477.707031 512.4375 447.1875 665.972656 478.640625 L 653.300781 330.945312 " fill-opacity="1" fill-rule="nonzero"/></g></g></g><g clip-path="url(#4900714970)"><g clip-path="url(#0df0e3427f)"><g clip-path="url(#00b679b9c9)"><path fill="#000000" d="M 438.136719 443.824219 C 438.136719 443.824219 498.195312 396.066406 587.140625 412.59375 L 574.46875 264.898438 C 574.46875 264.898438 507.601562 272.925781 489.871094 307.175781 C 489.871094 307.175781 516.226562 282.859375 558.339844 287.371094 L 569.261719 394.394531 C 569.261719 394.394531 483.242188 391.359375 438.136719 443.824219 " fill-opacity="1" fill-rule="nonzero"/></g></g></g><g clip-path="url(#38001a045b)"><g clip-path="url(#525a1106e6)"><g clip-path="url(#fa103c939b)"><path fill="#000000" d="M 190.246094 444.390625 L 203.558594 296.75 C 203.558594 296.75 218.378906 298.597656 235.894531 304.132812 L 234.5625 318.914062 C 229.832031 318.664062 224.835938 318.753906 219.589844 319.292969 L 208.199219 426.265625 C 208.199219 426.265625 329.59375 412.824219 385.425781 462.765625 C 385.425781 462.765625 315.566406 420.421875 190.246094 444.390625 " fill-opacity="1" fill-rule="nonzero"/></g></g></g><g clip-path="url(#653111c959)"><g clip-path="url(#77949210e1)"><g clip-path="url(#ec14c094e2)"><path fill="#000000" d="M 163.894531 330.589844 C 163.894531 330.589844 178.710938 332.4375 196.226562 337.976562 L 194.894531 352.753906 C 190.164062 352.503906 185.171875 352.59375 179.921875 353.132812 L 168.535156 460.109375 C 168.535156 460.109375 312.433594 428.398438 391.25 478.34375 C 391.25 478.34375 304.25 447.445312 150.578125 478.230469 L 163.894531 330.589844 " fill-opacity="1" fill-rule="nonzero"/></g></g></g><g clip-path="url(#7b6f76f564)"><g clip-path="url(#b7f2d01d65)"><g clip-path="url(#c0c8a881ef)"><path fill="#000000" d="M 378.566406 444.402344 C 378.566406 444.402344 318.714844 396.386719 229.699219 412.527344 L 243.011719 264.886719 C 243.011719 264.886719 309.84375 273.207031 327.425781 307.53125 C 327.425781 307.53125 301.175781 283.101562 259.042969 287.429688 L 247.65625 394.402344 C 247.65625 394.402344 333.6875 391.746094 378.566406 444.402344 " fill-opacity="1" fill-rule="nonzero"/></g></g></g><g clip-path="url(#5483dafb78)"><path fill="#000000" d="M 472.703125 192.550781 C 472.515625 195.457031 470.480469 197.929688 467.738281 198.921875 L 410.296875 219.730469 C 409.503906 220.015625 408.671875 220.164062 407.835938 220.164062 C 407.007812 220.164062 406.175781 220.015625 405.386719 219.730469 L 351.929688 200.371094 C 350.242188 199.757812 349.417969 197.816406 350.207031 196.152344 C 350.890625 194.699219 352.640625 194.085938 354.152344 194.632812 L 407.476562 213.945312 C 407.710938 214.03125 407.964844 214.03125 408.199219 213.945312 L 465.863281 193.058594 C 466.433594 192.851562 466.558594 192.410156 466.558594 192.074219 C 466.5625 191.796875 466.480469 191.300781 465.882812 191.074219 L 408.214844 169.054688 C 407.976562 168.964844 407.703125 168.964844 407.460938 169.054688 L 367.585938 184.28125 C 369.003906 184.789062 370.460938 185.339844 371.945312 185.9375 C 393.105469 194.457031 407.59375 187.296875 412.808594 183.855469 C 413.320312 183.519531 413.90625 183.351562 414.488281 183.351562 C 415.339844 183.351562 416.183594 183.710938 416.785156 184.386719 C 418.035156 185.796875 417.738281 187.972656 416.160156 189.003906 C 409.816406 193.164062 393.261719 201.152344 369.648438 191.648438 C 336.566406 178.328125 323.558594 189.753906 319.425781 195.4375 L 323.214844 197.734375 L 313.921875 212.710938 C 311.570312 216.503906 306.648438 217.769531 302.761719 215.578125 C 298.648438 213.261719 297.28125 207.996094 299.746094 203.972656 L 308.886719 189.054688 L 314.226562 192.292969 C 318.679688 186.140625 330.917969 174.828125 357.925781 181.386719 L 405.269531 163.3125 C 406.921875 162.675781 408.75 162.675781 410.410156 163.3125 L 468.074219 185.328125 C 471.050781 186.464844 472.90625 189.332031 472.703125 192.550781 Z M 472.703125 192.550781 " fill-opacity="1" fill-rule="nonzero"/></g><g clip-path="url(#5eb85a6220)"><path fill="#000000" d="M 435.476562 217.667969 L 410.296875 226.789062 C 409.503906 227.074219 408.671875 227.21875 407.839844 227.21875 C 407.007812 227.21875 406.175781 227.074219 405.386719 226.789062 L 379.320312 217.34375 C 367.582031 257.949219 335.425781 290.75 335.425781 290.75 C 344.703125 301.628906 353.800781 315.542969 362.316406 331.015625 L 388.136719 386.714844 C 392.953125 399.066406 400.664062 418.019531 404.230469 429.609375 L 403.429688 370.527344 C 403.828125 361.773438 403.84375 317.660156 403.621094 298.308594 C 400.808594 296.878906 398.878906 293.964844 398.878906 290.597656 C 398.878906 285.878906 402.65625 282.050781 407.351562 281.953125 C 412.042969 282.050781 415.824219 285.875 415.824219 290.597656 C 415.824219 293.964844 413.890625 296.878906 411.078125 298.308594 C 410.855469 317.660156 410.875 361.769531 411.269531 370.527344 L 410.46875 429.609375 C 414.039062 418.015625 421.75 399.0625 426.566406 386.714844 L 452.386719 331.015625 C 460.902344 315.542969 470 301.628906 479.277344 290.75 C 479.277344 290.753906 447.292969 258.125 435.476562 217.667969 Z M 435.476562 217.667969 " fill-opacity="1" fill-rule="nonzero"/></g><g fill="#000000" fill-opacity="1"><g transform="translate(37.469683, 616.364818)"><g><path d="M 77.3125 -8.125 L 77.3125 0 L 14.46875 0 L 14.46875 -88.875 L 75.40625 -88.875 L 75.40625 -80.75 L 23.875 -80.75 L 23.875 -49.125 L 69.828125 -49.125 L 69.828125 -41.140625 L 23.875 -41.140625 L 23.875 -8.125 Z M 77.3125 -8.125 "/></g></g></g><g fill="#000000" fill-opacity="1"><g transform="translate(142.710624, 616.364818)"><g><path d="M 78.578125 -8.125 L 78.578125 0 L 5.71875 0 L 5.71875 -6.46875 L 64.625 -80.75 L 6.609375 -80.75 L 6.609375 -88.875 L 77.0625 -88.875 L 77.0625 -82.390625 L 18.28125 -8.125 Z M 78.578125 -8.125 "/></g></g></g><g fill="#000000" fill-opacity="1"><g transform="translate(245.666521, 616.364818)"><g><path d="M 88.734375 -88.875 L 88.734375 0 L 81 0 L 23.875 -72.109375 L 23.875 0 L 14.46875 0 L 14.46875 -88.875 L 22.21875 -88.875 L 79.46875 -16.765625 L 79.46875 -88.875 Z M 88.734375 -88.875 "/></g></g></g><g fill="#000000" fill-opacity="1"><g transform="translate(369.18778, 616.364818)"><g><path d="M 53.328125 0.765625 C 44.523438 0.765625 36.546875 -1.203125 29.390625 -5.140625 C 22.234375 -9.078125 16.644531 -14.472656 12.625 -21.328125 C 8.613281 -28.179688 6.609375 -35.882812 6.609375 -44.4375 C 6.609375 -52.976562 8.613281 -60.675781 12.625 -67.53125 C 16.644531 -74.394531 22.234375 -79.789062 29.390625 -83.71875 C 36.546875 -87.65625 44.523438 -89.625 53.328125 -89.625 C 62.128906 -89.625 70.0625 -87.675781 77.125 -83.78125 C 84.1875 -79.894531 89.75 -74.5 93.8125 -67.59375 C 97.875 -60.695312 99.90625 -52.976562 99.90625 -44.4375 C 99.90625 -35.882812 97.875 -28.160156 93.8125 -21.265625 C 89.75 -14.367188 84.1875 -8.972656 77.125 -5.078125 C 70.0625 -1.179688 62.128906 0.765625 53.328125 0.765625 Z M 53.328125 -7.625 C 60.347656 -7.625 66.691406 -9.207031 72.359375 -12.375 C 78.035156 -15.550781 82.476562 -19.953125 85.6875 -25.578125 C 88.90625 -31.210938 90.515625 -37.5 90.515625 -44.4375 C 90.515625 -51.375 88.90625 -57.65625 85.6875 -63.28125 C 82.476562 -68.914062 78.035156 -73.316406 72.359375 -76.484375 C 66.691406 -79.660156 60.347656 -81.25 53.328125 -81.25 C 46.296875 -81.25 39.921875 -79.660156 34.203125 -76.484375 C 28.492188 -73.316406 24.007812 -68.914062 20.75 -63.28125 C 17.5 -57.65625 15.875 -51.375 15.875 -44.4375 C 15.875 -37.5 17.5 -31.210938 20.75 -25.578125 C 24.007812 -19.953125 28.492188 -15.550781 34.203125 -12.375 C 39.921875 -9.207031 46.296875 -7.625 53.328125 -7.625 Z M 53.328125 -7.625 "/></g></g></g><g fill="#000000" fill-opacity="1"><g transform="translate(496.009628, 616.364818)"><g><path d="M 31.734375 -80.75 L 0.515625 -80.75 L 0.515625 -88.875 L 72.359375 -88.875 L 72.359375 -80.75 L 41.140625 -80.75 L 41.140625 0 L 31.734375 0 Z M 31.734375 -80.75 "/></g></g></g><g fill="#000000" fill-opacity="1"><g transform="translate(589.190631, 616.364818)"><g><path d="M 77.3125 -8.125 L 77.3125 0 L 14.46875 0 L 14.46875 -88.875 L 75.40625 -88.875 L 75.40625 -80.75 L 23.875 -80.75 L 23.875 -49.125 L 69.828125 -49.125 L 69.828125 -41.140625 L 23.875 -41.140625 L 23.875 -8.125 Z M 77.3125 -8.125 "/></g></g></g><g fill="#000000" fill-opacity="1"><g transform="translate(694.431571, 616.364818)"><g><path d="M 38.96875 0.765625 C 32.375 0.765625 26.050781 -0.289062 20 -2.40625 C 13.945312 -4.53125 9.269531 -7.328125 5.96875 -10.796875 L 9.65625 -18.03125 C 12.863281 -14.8125 17.132812 -12.207031 22.46875 -10.21875 C 27.800781 -8.226562 33.300781 -7.234375 38.96875 -7.234375 C 46.925781 -7.234375 52.894531 -8.691406 56.875 -11.609375 C 60.851562 -14.535156 62.84375 -18.328125 62.84375 -22.984375 C 62.84375 -26.535156 61.765625 -29.367188 59.609375 -31.484375 C 57.453125 -33.597656 54.804688 -35.226562 51.671875 -36.375 C 48.535156 -37.519531 44.175781 -38.769531 38.59375 -40.125 C 31.90625 -41.8125 26.570312 -43.4375 22.59375 -45 C 18.613281 -46.570312 15.207031 -48.960938 12.375 -52.171875 C 9.539062 -55.390625 8.125 -59.75 8.125 -65.25 C 8.125 -69.738281 9.304688 -73.820312 11.671875 -77.5 C 14.046875 -81.1875 17.6875 -84.128906 22.59375 -86.328125 C 27.507812 -88.523438 33.601562 -89.625 40.875 -89.625 C 45.957031 -89.625 50.929688 -88.925781 55.796875 -87.53125 C 60.660156 -86.132812 64.867188 -84.210938 68.421875 -81.765625 L 65.25 -74.265625 C 61.53125 -76.722656 57.550781 -78.5625 53.3125 -79.78125 C 49.082031 -81.007812 44.9375 -81.625 40.875 -81.625 C 33.09375 -81.625 27.234375 -80.125 23.296875 -77.125 C 19.359375 -74.125 17.390625 -70.253906 17.390625 -65.515625 C 17.390625 -61.953125 18.46875 -59.09375 20.625 -56.9375 C 22.789062 -54.78125 25.5 -53.128906 28.75 -51.984375 C 32.007812 -50.847656 36.390625 -49.601562 41.890625 -48.25 C 48.410156 -46.632812 53.679688 -45.046875 57.703125 -43.484375 C 61.722656 -41.921875 65.128906 -39.550781 67.921875 -36.375 C 70.710938 -33.195312 72.109375 -28.898438 72.109375 -23.484375 C 72.109375 -19.003906 70.898438 -14.921875 68.484375 -11.234375 C 66.078125 -7.554688 62.375 -4.632812 57.375 -2.46875 C 52.382812 -0.3125 46.25 0.765625 38.96875 0.765625 Z M 38.96875 0.765625 "/></g></g></g></svg>